G04 (created by PCBNEW (2013-mar-08)-testing) date Fri 08 Mar 2013 11:58:21 PM EST*
%MOIN*%
G04 Gerber Fmt 3.4, Leading zero omitted, Abs format*
%FSLAX34Y34*%
G01*
G70*
G90*
G04 APERTURE LIST*
%ADD10C,0.006*%
%ADD11C,0.011811*%
%ADD12C,0.007*%
%ADD13R,0.06X0.06*%
%ADD14C,0.06*%
%ADD15R,0.15748X0.0492126*%
%ADD16R,0.036X0.07*%
%ADD17R,0.0688976X0.0275591*%
%ADD18R,0.0275591X0.0688976*%
%ADD19R,0.0314961X0.0787402*%
%ADD20R,0.023622X0.0787402*%
%ADD21R,0.0787402X0.023622*%
%ADD22R,0.08X0.08*%
%ADD23C,0.045*%
%ADD24R,0.16X0.065*%
%ADD25R,0.3X0.26*%
%ADD26R,0.0669291X0.0669291*%
%ADD27C,0.0669291*%
%ADD28C,0.0649606*%
%ADD29R,0.0649606X0.0649606*%
%ADD30R,0.0570866X0.0570866*%
%ADD31C,0.0570866*%
%ADD32R,0.0688976X0.0688976*%
%ADD33C,0.0688976*%
%ADD34C,0.0492126*%
%ADD35R,0.0629921X0.0629921*%
%ADD36C,0.0374016*%
%ADD37C,0.0629921*%
%ADD38C,0.15748*%
%ADD39R,0.141732X0.019685*%
%ADD40R,0.0984252X0.0787402*%
%ADD41C,0.0354331*%
%ADD42C,0.08*%
%ADD43R,0.110236X0.0669291*%
%ADD44R,0.0137X0.075*%
%ADD45C,0.074*%
%ADD46R,0.11811X0.0472441*%
%ADD47C,0.035*%
%ADD48C,0.07*%
%ADD49C,0.025*%
%ADD50C,0.01*%
%ADD51C,0.015*%
G04 APERTURE END LIST*
G54D10*
G54D11*
X39135Y-35571D02*
X39564Y-35271D01*
X39135Y-35057D02*
X40035Y-35057D01*
X40035Y-35400D01*
X39992Y-35485D01*
X39950Y-35528D01*
X39864Y-35571D01*
X39735Y-35571D01*
X39650Y-35528D01*
X39607Y-35485D01*
X39564Y-35400D01*
X39564Y-35057D01*
X39178Y-36300D02*
X39135Y-36214D01*
X39135Y-36042D01*
X39178Y-35957D01*
X39264Y-35914D01*
X39607Y-35914D01*
X39692Y-35957D01*
X39735Y-36042D01*
X39735Y-36214D01*
X39692Y-36300D01*
X39607Y-36342D01*
X39521Y-36342D01*
X39435Y-35914D01*
X39735Y-36642D02*
X39135Y-36857D01*
X39735Y-37071D01*
X39392Y-38057D02*
X39392Y-38485D01*
X39135Y-37971D02*
X40035Y-38271D01*
X39135Y-38571D01*
G54D12*
X40196Y-29125D02*
X40946Y-29125D01*
X40946Y-29410D01*
X40910Y-29482D01*
X40875Y-29517D01*
X40803Y-29553D01*
X40696Y-29553D01*
X40625Y-29517D01*
X40589Y-29482D01*
X40553Y-29410D01*
X40553Y-29125D01*
X40196Y-29875D02*
X40696Y-29875D01*
X40553Y-29875D02*
X40625Y-29910D01*
X40660Y-29946D01*
X40696Y-30017D01*
X40696Y-30089D01*
X40196Y-30446D02*
X40232Y-30375D01*
X40267Y-30339D01*
X40339Y-30303D01*
X40553Y-30303D01*
X40625Y-30339D01*
X40660Y-30375D01*
X40696Y-30446D01*
X40696Y-30553D01*
X40660Y-30625D01*
X40625Y-30660D01*
X40553Y-30696D01*
X40339Y-30696D01*
X40267Y-30660D01*
X40232Y-30625D01*
X40196Y-30553D01*
X40196Y-30446D01*
X40696Y-31017D02*
X40053Y-31017D01*
X39982Y-30982D01*
X39946Y-30910D01*
X39946Y-30875D01*
X40946Y-31017D02*
X40910Y-30982D01*
X40875Y-31017D01*
X40910Y-31053D01*
X40946Y-31017D01*
X40875Y-31017D01*
X40232Y-31660D02*
X40196Y-31589D01*
X40196Y-31446D01*
X40232Y-31375D01*
X40303Y-31339D01*
X40589Y-31339D01*
X40660Y-31375D01*
X40696Y-31446D01*
X40696Y-31589D01*
X40660Y-31660D01*
X40589Y-31696D01*
X40517Y-31696D01*
X40446Y-31339D01*
X40232Y-32339D02*
X40196Y-32267D01*
X40196Y-32125D01*
X40232Y-32053D01*
X40267Y-32017D01*
X40339Y-31982D01*
X40553Y-31982D01*
X40625Y-32017D01*
X40660Y-32053D01*
X40696Y-32125D01*
X40696Y-32267D01*
X40660Y-32339D01*
X40696Y-32553D02*
X40696Y-32839D01*
X40946Y-32660D02*
X40303Y-32660D01*
X40232Y-32696D01*
X40196Y-32767D01*
X40196Y-32839D01*
X40196Y-33196D02*
X40232Y-33125D01*
X40267Y-33089D01*
X40339Y-33053D01*
X40553Y-33053D01*
X40625Y-33089D01*
X40660Y-33125D01*
X40696Y-33196D01*
X40696Y-33303D01*
X40660Y-33375D01*
X40625Y-33410D01*
X40553Y-33446D01*
X40339Y-33446D01*
X40267Y-33410D01*
X40232Y-33375D01*
X40196Y-33303D01*
X40196Y-33196D01*
X40196Y-33767D02*
X40696Y-33767D01*
X40553Y-33767D02*
X40625Y-33803D01*
X40660Y-33839D01*
X40696Y-33910D01*
X40696Y-33982D01*
X39147Y-29321D02*
X39112Y-29285D01*
X39076Y-29178D01*
X39076Y-29107D01*
X39112Y-29000D01*
X39183Y-28928D01*
X39255Y-28892D01*
X39397Y-28857D01*
X39505Y-28857D01*
X39647Y-28892D01*
X39719Y-28928D01*
X39790Y-29000D01*
X39826Y-29107D01*
X39826Y-29178D01*
X39790Y-29285D01*
X39755Y-29321D01*
X39076Y-29750D02*
X39112Y-29678D01*
X39147Y-29642D01*
X39219Y-29607D01*
X39433Y-29607D01*
X39505Y-29642D01*
X39540Y-29678D01*
X39576Y-29750D01*
X39576Y-29857D01*
X39540Y-29928D01*
X39505Y-29964D01*
X39433Y-30000D01*
X39219Y-30000D01*
X39147Y-29964D01*
X39112Y-29928D01*
X39076Y-29857D01*
X39076Y-29750D01*
X39576Y-30321D02*
X39076Y-30321D01*
X39505Y-30321D02*
X39540Y-30357D01*
X39576Y-30428D01*
X39576Y-30535D01*
X39540Y-30607D01*
X39469Y-30642D01*
X39076Y-30642D01*
X39576Y-30892D02*
X39576Y-31178D01*
X39826Y-31000D02*
X39183Y-31000D01*
X39112Y-31035D01*
X39076Y-31107D01*
X39076Y-31178D01*
X39076Y-31428D02*
X39576Y-31428D01*
X39433Y-31428D02*
X39505Y-31464D01*
X39540Y-31500D01*
X39576Y-31571D01*
X39576Y-31642D01*
X39076Y-32000D02*
X39112Y-31928D01*
X39147Y-31892D01*
X39219Y-31857D01*
X39433Y-31857D01*
X39505Y-31892D01*
X39540Y-31928D01*
X39576Y-32000D01*
X39576Y-32107D01*
X39540Y-32178D01*
X39505Y-32214D01*
X39433Y-32250D01*
X39219Y-32250D01*
X39147Y-32214D01*
X39112Y-32178D01*
X39076Y-32107D01*
X39076Y-32000D01*
X39076Y-32678D02*
X39112Y-32607D01*
X39183Y-32571D01*
X39826Y-32571D01*
X39076Y-33071D02*
X39112Y-33000D01*
X39183Y-32964D01*
X39826Y-32964D01*
X39112Y-33642D02*
X39076Y-33571D01*
X39076Y-33428D01*
X39112Y-33357D01*
X39183Y-33321D01*
X39469Y-33321D01*
X39540Y-33357D01*
X39576Y-33428D01*
X39576Y-33571D01*
X39540Y-33642D01*
X39469Y-33678D01*
X39397Y-33678D01*
X39326Y-33321D01*
X39076Y-33999D02*
X39576Y-33999D01*
X39433Y-33999D02*
X39505Y-34035D01*
X39540Y-34071D01*
X39576Y-34142D01*
X39576Y-34214D01*
G54D13*
X61000Y-32500D03*
G54D14*
X61000Y-31500D03*
G54D15*
X55300Y-37500D03*
X57700Y-37500D03*
G54D16*
X76150Y-44425D03*
X76850Y-44425D03*
X76500Y-45575D03*
G54D17*
X50350Y-26875D03*
X50350Y-26500D03*
X50350Y-26125D03*
X51649Y-26125D03*
X51649Y-26500D03*
X51649Y-26875D03*
X44850Y-26875D03*
X44850Y-26500D03*
X44850Y-26125D03*
X46149Y-26125D03*
X46149Y-26500D03*
X46149Y-26875D03*
G54D18*
X78425Y-27299D03*
X78050Y-27299D03*
X77675Y-27299D03*
X77675Y-26000D03*
X78050Y-26000D03*
X78425Y-26000D03*
X64625Y-30350D03*
X65375Y-30350D03*
X65375Y-31649D03*
X65000Y-31649D03*
X64625Y-31649D03*
G54D19*
X63000Y-50976D03*
X64000Y-50976D03*
X64000Y-48023D03*
X63000Y-48023D03*
G54D20*
X57000Y-54911D03*
X57000Y-52588D03*
X56500Y-54911D03*
X56000Y-54911D03*
X55500Y-54911D03*
X56500Y-52588D03*
X56000Y-52588D03*
X55500Y-52588D03*
X43250Y-50338D03*
X43250Y-52661D03*
X43750Y-50338D03*
X44250Y-50338D03*
X44750Y-50338D03*
X43750Y-52661D03*
X44250Y-52661D03*
X44750Y-52661D03*
G54D21*
X69661Y-26250D03*
X67338Y-26250D03*
X69661Y-26750D03*
X69661Y-27250D03*
X69661Y-27750D03*
X67338Y-26750D03*
X67338Y-27250D03*
X67338Y-27750D03*
G54D22*
X61290Y-53500D03*
X59710Y-53500D03*
X64500Y-54710D03*
X64500Y-56290D03*
X73210Y-26000D03*
X74790Y-26000D03*
X69790Y-41000D03*
X68210Y-41000D03*
X74790Y-57500D03*
X73210Y-57500D03*
X63000Y-28290D03*
X63000Y-26710D03*
X55500Y-28290D03*
X55500Y-26710D03*
X70590Y-43900D03*
X69010Y-43900D03*
X58000Y-28290D03*
X58000Y-26710D03*
X60500Y-28290D03*
X60500Y-26710D03*
X41000Y-50410D03*
X41000Y-51990D03*
X70590Y-46400D03*
X69010Y-46400D03*
X70790Y-30400D03*
X69210Y-30400D03*
X70790Y-32900D03*
X69210Y-32900D03*
X68000Y-37790D03*
X68000Y-36210D03*
X65500Y-36290D03*
X65500Y-34710D03*
X42500Y-31790D03*
X42500Y-30210D03*
X79000Y-44210D03*
X79000Y-45790D03*
X73500Y-51840D03*
X73500Y-50260D03*
X74790Y-55000D03*
X73210Y-55000D03*
X60500Y-37290D03*
X60500Y-35710D03*
X57210Y-47000D03*
X58790Y-47000D03*
X57210Y-49500D03*
X58790Y-49500D03*
X57750Y-33790D03*
X57750Y-32210D03*
X73500Y-46790D03*
X73500Y-45210D03*
X68110Y-56000D03*
X69690Y-56000D03*
X45500Y-31790D03*
X45500Y-30210D03*
X48500Y-31790D03*
X48500Y-30210D03*
X51500Y-31790D03*
X51500Y-30210D03*
X63000Y-36290D03*
X63000Y-34710D03*
X55250Y-33790D03*
X55250Y-32210D03*
X50000Y-50710D03*
X50000Y-52290D03*
X47500Y-52290D03*
X47500Y-50710D03*
X47790Y-47500D03*
X46210Y-47500D03*
X53590Y-47000D03*
X52010Y-47000D03*
X53250Y-54540D03*
X53250Y-52960D03*
X46290Y-56500D03*
X44710Y-56500D03*
X70500Y-36210D03*
X70500Y-37790D03*
X73000Y-37790D03*
X73000Y-36210D03*
X51500Y-36790D03*
X51500Y-35210D03*
X48500Y-36790D03*
X48500Y-35210D03*
X45500Y-36790D03*
X45500Y-35210D03*
G54D23*
X64000Y-46000D03*
X71500Y-57500D03*
X62000Y-46000D03*
X79000Y-43000D03*
X75000Y-35000D03*
X52000Y-46000D03*
X46000Y-53000D03*
X64000Y-39000D03*
X63000Y-39000D03*
X48500Y-39000D03*
X51500Y-39000D03*
X45500Y-39000D03*
X45500Y-41000D03*
X60000Y-46000D03*
X61000Y-46000D03*
G54D24*
X75000Y-31100D03*
G54D25*
X78000Y-32000D03*
G54D24*
X75000Y-32900D03*
G54D26*
X42000Y-46000D03*
G54D27*
X42000Y-45000D03*
X42000Y-44000D03*
X42000Y-43000D03*
X42000Y-42000D03*
X41000Y-42000D03*
X41000Y-43000D03*
X41000Y-44000D03*
X41000Y-45000D03*
X41000Y-46000D03*
G54D28*
X64000Y-41000D03*
X63000Y-41000D03*
X62000Y-41000D03*
X61000Y-41000D03*
X60000Y-41000D03*
X59000Y-41000D03*
X58000Y-41000D03*
X57000Y-41000D03*
X56000Y-41000D03*
X55000Y-41000D03*
X54000Y-41000D03*
X53000Y-41000D03*
X52000Y-41000D03*
G54D29*
X65000Y-41000D03*
G54D28*
X52000Y-44000D03*
X53000Y-44000D03*
X54000Y-44000D03*
X55000Y-44000D03*
X56000Y-44000D03*
X57000Y-44000D03*
X58000Y-44000D03*
X59000Y-44000D03*
X60000Y-44000D03*
X61000Y-44000D03*
X62000Y-44000D03*
X63000Y-44000D03*
X64000Y-44000D03*
X65000Y-44000D03*
G54D30*
X49993Y-57000D03*
G54D31*
X49206Y-57000D03*
G54D32*
X64000Y-22500D03*
G54D33*
X65000Y-22500D03*
X66000Y-22500D03*
X67000Y-22500D03*
G54D34*
X66000Y-21650D03*
G54D35*
X41493Y-27000D03*
G54D36*
X40903Y-27590D03*
G54D37*
X40706Y-26409D03*
G54D35*
X57500Y-22493D03*
G54D36*
X56909Y-21903D03*
G54D37*
X58090Y-21706D03*
G54D35*
X52500Y-22493D03*
G54D36*
X51909Y-21903D03*
G54D37*
X53090Y-21706D03*
G54D35*
X47500Y-22493D03*
G54D36*
X46909Y-21903D03*
G54D37*
X48090Y-21706D03*
G54D35*
X61400Y-56406D03*
G54D36*
X61990Y-56996D03*
G54D37*
X60809Y-57193D03*
X60214Y-56406D03*
G54D38*
X78500Y-57000D03*
X78500Y-22000D03*
X41000Y-57000D03*
X41000Y-22000D03*
G54D39*
X77885Y-51529D03*
X77885Y-51214D03*
X77885Y-50900D03*
X77885Y-50585D03*
X77885Y-50270D03*
G54D40*
X78181Y-52652D03*
X80346Y-52652D03*
X78181Y-49148D03*
X80346Y-49148D03*
G54D41*
X79165Y-51766D03*
X79165Y-50034D03*
G54D42*
X73427Y-22500D03*
G54D22*
X72050Y-22500D03*
G54D43*
X73094Y-28500D03*
X74905Y-28500D03*
G54D44*
X67335Y-52550D03*
X67595Y-52550D03*
X67850Y-52550D03*
X68105Y-52550D03*
X68360Y-52550D03*
X68620Y-52550D03*
X68870Y-52550D03*
X69125Y-52550D03*
X69380Y-52550D03*
X69640Y-52550D03*
X69895Y-52550D03*
X70150Y-52550D03*
X70405Y-52550D03*
X70660Y-52550D03*
X70660Y-49450D03*
X70410Y-49450D03*
X70150Y-49450D03*
X69895Y-49450D03*
X69640Y-49450D03*
X69385Y-49450D03*
X69130Y-49450D03*
X68875Y-49450D03*
X68615Y-49450D03*
X68360Y-49450D03*
X68105Y-49450D03*
X67850Y-49450D03*
X67590Y-49450D03*
X67335Y-49450D03*
G54D45*
X47890Y-42520D03*
X47890Y-45080D03*
X46110Y-42520D03*
X46110Y-45080D03*
G54D46*
X76318Y-38515D03*
X76318Y-39500D03*
X76318Y-40484D03*
G54D41*
X77500Y-40838D03*
X77500Y-38161D03*
G54D47*
X71800Y-37800D03*
X43900Y-42000D03*
X49800Y-42600D03*
X72200Y-43900D03*
X55600Y-50600D03*
X41600Y-53400D03*
G54D48*
X66050Y-26250D03*
X77500Y-28800D03*
G54D47*
X66000Y-56300D03*
X73200Y-53750D03*
X76300Y-50250D03*
X73500Y-43900D03*
X69500Y-42600D03*
X73000Y-35100D03*
X68000Y-35100D03*
X65500Y-33550D03*
X48500Y-29100D03*
X63000Y-33550D03*
X42500Y-29100D03*
X45500Y-29100D03*
X51500Y-29150D03*
X56500Y-32200D03*
G54D48*
X65700Y-27250D03*
G54D47*
X67000Y-28700D03*
X50350Y-28000D03*
X44850Y-28000D03*
G54D49*
X63000Y-28290D02*
X63960Y-28290D01*
X72100Y-26000D02*
X73210Y-26000D01*
X71350Y-25250D02*
X72100Y-26000D01*
X65200Y-25250D02*
X71350Y-25250D01*
X64550Y-25900D02*
X65200Y-25250D01*
X64550Y-27700D02*
X64550Y-25900D01*
X63960Y-28290D02*
X64550Y-27700D01*
G54D50*
X70500Y-36210D02*
X70500Y-35200D01*
X71700Y-28500D02*
X73094Y-28500D01*
X70800Y-29400D02*
X71700Y-28500D01*
X68400Y-29400D02*
X70800Y-29400D01*
X68100Y-29700D02*
X68400Y-29400D01*
X68100Y-33800D02*
X68100Y-29700D01*
X68700Y-34400D02*
X68100Y-33800D01*
X69700Y-34400D02*
X68700Y-34400D01*
X70500Y-35200D02*
X69700Y-34400D01*
G54D49*
X60500Y-28290D02*
X63000Y-28290D01*
X58000Y-28290D02*
X60500Y-28290D01*
X55500Y-28290D02*
X58000Y-28290D01*
G54D51*
X60500Y-37290D02*
X60510Y-37290D01*
X61000Y-33600D02*
X61000Y-32500D01*
X61400Y-34000D02*
X61000Y-33600D01*
X61400Y-36400D02*
X61400Y-34000D01*
X60510Y-37290D02*
X61400Y-36400D01*
X61000Y-32500D02*
X60400Y-32500D01*
X60400Y-32500D02*
X60100Y-32200D01*
X60100Y-32200D02*
X60100Y-31200D01*
X60100Y-31200D02*
X60949Y-30350D01*
X60949Y-30350D02*
X64625Y-30350D01*
X49993Y-57000D02*
X50790Y-57000D01*
X50790Y-57000D02*
X53250Y-54540D01*
X55500Y-54911D02*
X55500Y-54200D01*
X57000Y-54200D02*
X57000Y-54911D01*
X56650Y-53850D02*
X57000Y-54200D01*
X55850Y-53850D02*
X56650Y-53850D01*
X55500Y-54200D02*
X55850Y-53850D01*
X53250Y-54540D02*
X54240Y-54540D01*
X54240Y-54540D02*
X54611Y-54911D01*
X54611Y-54911D02*
X55500Y-54911D01*
X64000Y-46000D02*
X64900Y-46000D01*
X68210Y-41790D02*
X68210Y-41000D01*
X67800Y-42200D02*
X68210Y-41790D01*
X67100Y-42200D02*
X67800Y-42200D01*
X66400Y-42900D02*
X67100Y-42200D01*
X66400Y-44500D02*
X66400Y-42900D01*
X64900Y-46000D02*
X66400Y-44500D01*
X68210Y-41000D02*
X67200Y-41000D01*
X67200Y-41000D02*
X66100Y-42100D01*
X66100Y-42100D02*
X60100Y-42100D01*
X60100Y-42100D02*
X59000Y-41000D01*
X41000Y-50410D02*
X43178Y-50410D01*
X43178Y-50410D02*
X43250Y-50338D01*
X41000Y-50410D02*
X41000Y-46000D01*
X59000Y-41000D02*
X58100Y-41900D01*
X58100Y-42900D02*
X57000Y-44000D01*
X58100Y-41900D02*
X58100Y-42900D01*
X63000Y-48023D02*
X63000Y-46400D01*
X63400Y-46000D02*
X64000Y-46000D01*
X63000Y-46400D02*
X63400Y-46000D01*
X47790Y-47500D02*
X47790Y-48210D01*
X47790Y-48210D02*
X47300Y-48700D01*
X47300Y-48700D02*
X44100Y-48700D01*
X44100Y-48700D02*
X43250Y-49550D01*
X43250Y-49550D02*
X43250Y-50338D01*
X47790Y-47500D02*
X48800Y-47500D01*
X48800Y-47500D02*
X50400Y-45900D01*
X50400Y-45900D02*
X50400Y-43600D01*
X50400Y-43600D02*
X51400Y-42600D01*
X51400Y-42600D02*
X55600Y-42600D01*
X55600Y-42600D02*
X57000Y-44000D01*
X49993Y-57000D02*
X49993Y-55406D01*
X50000Y-51300D02*
X50000Y-50710D01*
X50200Y-51500D02*
X50000Y-51300D01*
X50900Y-51500D02*
X50200Y-51500D01*
X51300Y-51900D02*
X50900Y-51500D01*
X51300Y-54100D02*
X51300Y-51900D01*
X49993Y-55406D02*
X51300Y-54100D01*
X50000Y-50710D02*
X51890Y-50710D01*
X53590Y-49010D02*
X53590Y-47000D01*
X51890Y-50710D02*
X53590Y-49010D01*
X57210Y-47000D02*
X53590Y-47000D01*
X59000Y-41000D02*
X60500Y-39500D01*
X60500Y-39500D02*
X60500Y-37290D01*
X57000Y-44000D02*
X57000Y-45500D01*
X57210Y-45710D02*
X57210Y-47000D01*
X57000Y-45500D02*
X57210Y-45710D01*
X79000Y-43000D02*
X77600Y-43000D01*
X76318Y-41718D02*
X76318Y-40484D01*
X77600Y-43000D02*
X76318Y-41718D01*
X79000Y-45790D02*
X79010Y-45790D01*
X79800Y-43000D02*
X79000Y-43000D01*
X80200Y-43400D02*
X79800Y-43000D01*
X80200Y-44600D02*
X80200Y-43400D01*
X79010Y-45790D02*
X80200Y-44600D01*
X76500Y-45575D02*
X77775Y-45575D01*
X77990Y-45790D02*
X79000Y-45790D01*
X77775Y-45575D02*
X77990Y-45790D01*
G54D50*
X73000Y-37790D02*
X71810Y-37790D01*
X71810Y-37790D02*
X71800Y-37800D01*
X71790Y-37790D02*
X70500Y-37790D01*
X71800Y-37800D02*
X71790Y-37790D01*
X60000Y-46000D02*
X60000Y-44000D01*
X57000Y-52588D02*
X58311Y-52588D01*
X61000Y-49900D02*
X61000Y-46000D01*
X58311Y-52588D02*
X61000Y-49900D01*
X61000Y-46000D02*
X61000Y-44000D01*
X68000Y-37790D02*
X67190Y-37790D01*
X68050Y-26750D02*
X67338Y-26750D01*
X68400Y-27100D02*
X68050Y-26750D01*
X68400Y-28800D02*
X68400Y-27100D01*
X66800Y-30400D02*
X68400Y-28800D01*
X66800Y-37400D02*
X66800Y-30400D01*
X67190Y-37790D02*
X66800Y-37400D01*
X64000Y-39000D02*
X67600Y-39000D01*
X68000Y-38600D02*
X68000Y-37790D01*
X67600Y-39000D02*
X68000Y-38600D01*
X62000Y-41000D02*
X64000Y-39000D01*
X65500Y-36290D02*
X65500Y-35700D01*
X65000Y-32300D02*
X65000Y-31649D01*
X64600Y-32700D02*
X65000Y-32300D01*
X64600Y-35200D02*
X64600Y-32700D01*
X64900Y-35500D02*
X64600Y-35200D01*
X65300Y-35500D02*
X64900Y-35500D01*
X65500Y-35700D02*
X65300Y-35500D01*
X61000Y-41000D02*
X63000Y-39000D01*
X63000Y-39000D02*
X64300Y-37700D01*
X64300Y-37700D02*
X64300Y-36500D01*
X64300Y-36500D02*
X64510Y-36290D01*
X64510Y-36290D02*
X65500Y-36290D01*
X42500Y-31790D02*
X42510Y-31790D01*
X44200Y-26500D02*
X44850Y-26500D01*
X43800Y-26900D02*
X44200Y-26500D01*
X43800Y-30500D02*
X43800Y-26900D01*
X42510Y-31790D02*
X43800Y-30500D01*
G54D51*
X45500Y-41000D02*
X42500Y-38000D01*
X42500Y-38000D02*
X42500Y-31790D01*
X45500Y-41000D02*
X52000Y-41000D01*
G54D50*
X46149Y-26500D02*
X46800Y-26500D01*
X47200Y-35090D02*
X45500Y-36790D01*
X47200Y-26900D02*
X47200Y-35090D01*
X46800Y-26500D02*
X47200Y-26900D01*
G54D51*
X45500Y-39000D02*
X46600Y-40100D01*
X52100Y-40100D02*
X53000Y-41000D01*
X46600Y-40100D02*
X52100Y-40100D01*
X45500Y-36790D02*
X45500Y-39000D01*
X51500Y-39000D02*
X51500Y-36790D01*
X55000Y-41000D02*
X53000Y-39000D01*
X53000Y-39000D02*
X51500Y-39000D01*
G54D50*
X51500Y-36790D02*
X51510Y-36790D01*
X51510Y-36790D02*
X52700Y-35600D01*
X52700Y-35600D02*
X52700Y-26900D01*
X52700Y-26900D02*
X52300Y-26500D01*
X52300Y-26500D02*
X51649Y-26500D01*
G54D51*
X48500Y-36790D02*
X48500Y-39000D01*
X48500Y-39000D02*
X49100Y-39600D01*
X49100Y-39600D02*
X52600Y-39600D01*
X52600Y-39600D02*
X54000Y-41000D01*
G54D50*
X48500Y-36790D02*
X48510Y-36790D01*
X49800Y-26500D02*
X50350Y-26500D01*
X49500Y-26800D02*
X49800Y-26500D01*
X49500Y-35800D02*
X49500Y-26800D01*
X48510Y-36790D02*
X49500Y-35800D01*
X44250Y-50338D02*
X44250Y-49650D01*
X54300Y-43300D02*
X55000Y-44000D01*
X51600Y-43300D02*
X54300Y-43300D01*
X51100Y-43800D02*
X51600Y-43300D01*
X51100Y-48300D02*
X51100Y-43800D01*
X50000Y-49400D02*
X51100Y-48300D01*
X44500Y-49400D02*
X50000Y-49400D01*
X44250Y-49650D02*
X44500Y-49400D01*
X43900Y-42000D02*
X42000Y-42000D01*
X64000Y-48023D02*
X64000Y-48900D01*
X62000Y-48900D02*
X62000Y-46000D01*
X62300Y-49200D02*
X62000Y-48900D01*
X63700Y-49200D02*
X62300Y-49200D01*
X64000Y-48900D02*
X63700Y-49200D01*
X64500Y-54710D02*
X64500Y-53100D01*
X64523Y-48023D02*
X64000Y-48023D01*
X65000Y-48500D02*
X64523Y-48023D01*
X65000Y-52600D02*
X65000Y-48500D01*
X64500Y-53100D02*
X65000Y-52600D01*
X62000Y-44000D02*
X62000Y-46000D01*
X43750Y-50338D02*
X43750Y-49650D01*
X55000Y-43000D02*
X56000Y-44000D01*
X51500Y-43000D02*
X55000Y-43000D01*
X50800Y-43700D02*
X51500Y-43000D01*
X50800Y-48100D02*
X50800Y-43700D01*
X49800Y-49100D02*
X50800Y-48100D01*
X44300Y-49100D02*
X49800Y-49100D01*
X43750Y-49650D02*
X44300Y-49100D01*
X42000Y-43000D02*
X43900Y-43000D01*
X49000Y-41800D02*
X49800Y-42600D01*
X45100Y-41800D02*
X49000Y-41800D01*
X43900Y-43000D02*
X45100Y-41800D01*
X64000Y-41000D02*
X65100Y-39900D01*
X67335Y-51635D02*
X67335Y-52550D01*
X66350Y-50650D02*
X67335Y-51635D01*
X66350Y-45450D02*
X66350Y-50650D01*
X67000Y-44800D02*
X66350Y-45450D01*
X67000Y-43650D02*
X67000Y-44800D01*
X68850Y-41800D02*
X67000Y-43650D01*
X68850Y-40350D02*
X68850Y-41800D01*
X68400Y-39900D02*
X68850Y-40350D01*
X65100Y-39900D02*
X68400Y-39900D01*
X68360Y-52550D02*
X68360Y-51710D01*
X64400Y-39600D02*
X63000Y-41000D01*
X68550Y-39600D02*
X64400Y-39600D01*
X69150Y-40200D02*
X68550Y-39600D01*
X69150Y-41900D02*
X69150Y-40200D01*
X67400Y-43650D02*
X69150Y-41900D01*
X67400Y-44950D02*
X67400Y-43650D01*
X66750Y-45600D02*
X67400Y-44950D01*
X66750Y-50100D02*
X66750Y-45600D01*
X68360Y-51710D02*
X66750Y-50100D01*
G54D51*
X72200Y-43900D02*
X70590Y-43900D01*
X70590Y-43900D02*
X70590Y-43210D01*
X70590Y-43210D02*
X70900Y-42900D01*
X70900Y-42900D02*
X75700Y-42900D01*
X75700Y-42900D02*
X76150Y-43350D01*
X76150Y-43350D02*
X76150Y-44425D01*
G54D50*
X69640Y-49450D02*
X69640Y-48360D01*
X70590Y-47410D02*
X70590Y-46400D01*
X69640Y-48360D02*
X70590Y-47410D01*
G54D51*
X70590Y-46400D02*
X70590Y-43900D01*
X71500Y-57500D02*
X68700Y-57500D01*
X68110Y-56910D02*
X68110Y-56000D01*
X68700Y-57500D02*
X68110Y-56910D01*
G54D50*
X68110Y-56000D02*
X68110Y-52555D01*
X68110Y-52555D02*
X68105Y-52550D01*
G54D51*
X73210Y-57500D02*
X71500Y-57500D01*
G54D50*
X69385Y-49450D02*
X69640Y-49450D01*
X44750Y-50338D02*
X45861Y-50338D01*
X52010Y-48190D02*
X52010Y-47000D01*
X50400Y-49800D02*
X52010Y-48190D01*
X46400Y-49800D02*
X50400Y-49800D01*
X45861Y-50338D02*
X46400Y-49800D01*
X52010Y-47000D02*
X52010Y-46010D01*
X52010Y-46010D02*
X53000Y-45020D01*
X53000Y-45020D02*
X53000Y-44000D01*
X46210Y-47500D02*
X46210Y-46760D01*
X46210Y-46760D02*
X47890Y-45080D01*
X42000Y-44000D02*
X42800Y-44000D01*
X44800Y-47500D02*
X46210Y-47500D01*
X44000Y-46700D02*
X44800Y-47500D01*
X44000Y-45200D02*
X44000Y-46700D01*
X42800Y-44000D02*
X44000Y-45200D01*
X47890Y-45080D02*
X47890Y-42520D01*
X73500Y-50260D02*
X74540Y-50260D01*
X76850Y-44850D02*
X76850Y-44425D01*
X76700Y-45000D02*
X76850Y-44850D01*
X75700Y-45000D02*
X76700Y-45000D01*
X75300Y-45400D02*
X75700Y-45000D01*
X75300Y-49500D02*
X75300Y-45400D01*
X74540Y-50260D02*
X75300Y-49500D01*
G54D51*
X76850Y-44425D02*
X77775Y-44425D01*
X77775Y-44425D02*
X77990Y-44210D01*
X77990Y-44210D02*
X79000Y-44210D01*
G54D50*
X73500Y-50260D02*
X73500Y-50250D01*
G54D51*
X58790Y-49500D02*
X57690Y-50600D01*
X53250Y-51050D02*
X53700Y-50600D01*
X53700Y-50600D02*
X55600Y-50600D01*
X53250Y-51050D02*
X53250Y-52960D01*
X57690Y-50600D02*
X55600Y-50600D01*
X53250Y-52960D02*
X54240Y-52960D01*
X54240Y-52960D02*
X54650Y-52550D01*
X54650Y-52550D02*
X55461Y-52550D01*
X55461Y-52550D02*
X55500Y-52588D01*
X41000Y-51990D02*
X41000Y-52800D01*
X44700Y-56500D02*
X41600Y-53400D01*
X44700Y-56500D02*
X44710Y-56500D01*
X41000Y-52800D02*
X41600Y-53400D01*
G54D49*
X67338Y-26250D02*
X66050Y-26250D01*
G54D50*
X77675Y-27299D02*
X77200Y-27299D01*
X77000Y-28300D02*
X77500Y-28800D01*
X77000Y-27500D02*
X77000Y-28300D01*
X77200Y-27299D02*
X77000Y-27500D01*
G54D51*
X60500Y-35710D02*
X59010Y-35710D01*
X59010Y-35710D02*
X59000Y-35700D01*
X58000Y-41000D02*
X58000Y-39800D01*
G54D50*
X44750Y-52661D02*
X45338Y-52661D01*
X46490Y-50710D02*
X47500Y-50710D01*
X45750Y-51450D02*
X46490Y-50710D01*
X45750Y-52250D02*
X45750Y-51450D01*
X45338Y-52661D02*
X45750Y-52250D01*
X64500Y-56290D02*
X65350Y-56290D01*
X65990Y-56290D02*
X66000Y-56300D01*
X65350Y-56290D02*
X65990Y-56290D01*
G54D51*
X73210Y-55000D02*
X73210Y-53760D01*
X73210Y-53760D02*
X73200Y-53750D01*
X77885Y-50270D02*
X76320Y-50270D01*
X76320Y-50270D02*
X76300Y-50250D01*
G54D50*
X73500Y-45210D02*
X73500Y-43900D01*
G54D51*
X69010Y-43900D02*
X69010Y-43090D01*
X69010Y-43090D02*
X69500Y-42600D01*
G54D50*
X73000Y-36210D02*
X73000Y-35100D01*
X68000Y-36210D02*
X68000Y-35100D01*
G54D51*
X69210Y-30400D02*
X69210Y-31660D01*
X77800Y-31800D02*
X78000Y-32000D01*
X69350Y-31800D02*
X77800Y-31800D01*
X69210Y-31660D02*
X69350Y-31800D01*
X69210Y-32900D02*
X69210Y-32290D01*
X77850Y-32150D02*
X78000Y-32000D01*
X69350Y-32150D02*
X77850Y-32150D01*
X69210Y-32290D02*
X69350Y-32150D01*
G54D50*
X65500Y-34710D02*
X65500Y-33550D01*
G54D51*
X65375Y-32875D02*
X65500Y-33000D01*
X65500Y-33000D02*
X65500Y-33550D01*
X65375Y-32875D02*
X65375Y-31649D01*
X48500Y-30210D02*
X48500Y-29100D01*
X49225Y-26125D02*
X48500Y-26850D01*
X48500Y-26850D02*
X48500Y-29100D01*
X49225Y-26125D02*
X50350Y-26125D01*
G54D50*
X63000Y-34710D02*
X63000Y-33550D01*
G54D51*
X44850Y-26125D02*
X43875Y-26125D01*
X42500Y-29100D02*
X42500Y-30210D01*
X43150Y-28450D02*
X42500Y-29100D01*
X43150Y-26850D02*
X43150Y-28450D01*
X43875Y-26125D02*
X43150Y-26850D01*
X46149Y-26875D02*
X46149Y-27900D01*
X45500Y-29100D02*
X45500Y-30210D01*
X45500Y-28550D02*
X45500Y-29100D01*
X46149Y-27900D02*
X45500Y-28550D01*
X51649Y-26875D02*
X51649Y-28450D01*
X51500Y-29150D02*
X51500Y-30210D01*
X51500Y-28600D02*
X51500Y-29150D01*
X51649Y-28450D02*
X51500Y-28600D01*
X41000Y-51990D02*
X42310Y-51990D01*
X44750Y-51850D02*
X44750Y-52661D01*
X44300Y-51400D02*
X44750Y-51850D01*
X42900Y-51400D02*
X44300Y-51400D01*
X42310Y-51990D02*
X42900Y-51400D01*
G54D50*
X68105Y-49450D02*
X68105Y-47305D01*
X68105Y-47305D02*
X69010Y-46400D01*
X69130Y-49450D02*
X69130Y-48530D01*
X69130Y-48530D02*
X69010Y-48410D01*
X69010Y-48410D02*
X69010Y-46400D01*
X69895Y-49450D02*
X69895Y-48605D01*
X72710Y-46000D02*
X73500Y-45210D01*
X72500Y-46000D02*
X72710Y-46000D01*
X69895Y-48605D02*
X72500Y-46000D01*
X68870Y-52550D02*
X68870Y-51130D01*
X69130Y-50870D02*
X69130Y-49450D01*
X68870Y-51130D02*
X69130Y-50870D01*
G54D51*
X69010Y-43900D02*
X69010Y-46400D01*
X58790Y-49500D02*
X58790Y-47000D01*
G54D50*
X67850Y-49450D02*
X68105Y-49450D01*
G54D51*
X57750Y-32210D02*
X56510Y-32210D01*
X56490Y-32210D02*
X56500Y-32200D01*
X56490Y-32210D02*
X55250Y-32210D01*
X56510Y-32210D02*
X56500Y-32200D01*
X58790Y-47000D02*
X58790Y-45710D01*
X59000Y-45500D02*
X59000Y-44000D01*
X58790Y-45710D02*
X59000Y-45500D01*
G54D50*
X51500Y-35210D02*
X51500Y-31790D01*
G54D51*
X46290Y-56500D02*
X46290Y-55690D01*
X43750Y-54450D02*
X43750Y-52661D01*
X44600Y-55300D02*
X43750Y-54450D01*
X45900Y-55300D02*
X44600Y-55300D01*
X46290Y-55690D02*
X45900Y-55300D01*
X49206Y-57000D02*
X48200Y-57000D01*
X47700Y-56500D02*
X46290Y-56500D01*
X48200Y-57000D02*
X47700Y-56500D01*
X57210Y-49500D02*
X57210Y-49490D01*
X58000Y-48700D02*
X58000Y-44000D01*
X57210Y-49490D02*
X58000Y-48700D01*
X75000Y-31100D02*
X73400Y-31100D01*
X73400Y-31100D02*
X72700Y-30400D01*
X72700Y-30400D02*
X70790Y-30400D01*
X75000Y-31100D02*
X75000Y-28594D01*
X75000Y-28594D02*
X74905Y-28500D01*
G54D50*
X77885Y-51214D02*
X71414Y-51214D01*
X70410Y-50210D02*
X70410Y-49450D01*
X71414Y-51214D02*
X70410Y-50210D01*
X70660Y-49450D02*
X70660Y-50060D01*
X71500Y-50900D02*
X77885Y-50900D01*
X70660Y-50060D02*
X71500Y-50900D01*
X63000Y-36290D02*
X62290Y-36290D01*
X61700Y-31500D02*
X61000Y-31500D01*
X62000Y-31800D02*
X61700Y-31500D01*
X62000Y-36000D02*
X62000Y-31800D01*
X62290Y-36290D02*
X62000Y-36000D01*
X60000Y-41000D02*
X63000Y-38000D01*
X63000Y-38000D02*
X63000Y-36290D01*
X73500Y-51840D02*
X72240Y-51840D01*
X71530Y-52550D02*
X70660Y-52550D01*
X72240Y-51840D02*
X71530Y-52550D01*
X69690Y-56000D02*
X69690Y-54610D01*
X70660Y-53640D02*
X70660Y-52550D01*
X69690Y-54610D02*
X70660Y-53640D01*
X70150Y-49450D02*
X70150Y-48800D01*
X72160Y-46790D02*
X73500Y-46790D01*
X70150Y-48800D02*
X72160Y-46790D01*
G54D51*
X74790Y-57500D02*
X74790Y-55000D01*
X77885Y-51529D02*
X76270Y-51529D01*
X74790Y-53010D02*
X74790Y-55000D01*
X76270Y-51529D02*
X74790Y-53010D01*
G54D50*
X74790Y-26000D02*
X77674Y-26000D01*
X77674Y-26000D02*
X77675Y-26000D01*
G54D49*
X67338Y-27250D02*
X65700Y-27250D01*
G54D50*
X65375Y-30350D02*
X65849Y-30350D01*
X67000Y-29200D02*
X67000Y-28700D01*
X65849Y-30350D02*
X67000Y-29200D01*
X61400Y-56406D02*
X61400Y-53610D01*
X61400Y-53610D02*
X61290Y-53500D01*
X59710Y-53500D02*
X59710Y-52090D01*
X60823Y-50976D02*
X63000Y-50976D01*
X59710Y-52090D02*
X60823Y-50976D01*
X64000Y-50976D02*
X64000Y-51800D01*
X60214Y-54885D02*
X60214Y-56406D01*
X60500Y-54600D02*
X60214Y-54885D01*
X60500Y-52600D02*
X60500Y-54600D01*
X60900Y-52200D02*
X60500Y-52600D01*
X63600Y-52200D02*
X60900Y-52200D01*
X64000Y-51800D02*
X63600Y-52200D01*
G54D51*
X76318Y-38515D02*
X76318Y-36318D01*
X76318Y-36318D02*
X75000Y-35000D01*
X75000Y-32900D02*
X75000Y-35000D01*
X75000Y-32900D02*
X70790Y-32900D01*
X50350Y-27999D02*
X50350Y-26875D01*
X50350Y-28000D02*
X50350Y-27999D01*
G54D50*
X45500Y-35210D02*
X45500Y-31790D01*
G54D51*
X44850Y-27999D02*
X44850Y-26875D01*
X44850Y-28000D02*
X44850Y-27999D01*
X53090Y-21706D02*
X54606Y-21706D01*
X52825Y-26125D02*
X51649Y-26125D01*
X54200Y-27500D02*
X52825Y-26125D01*
X61500Y-27500D02*
X54200Y-27500D01*
X61900Y-27100D02*
X61500Y-27500D01*
X61900Y-26200D02*
X61900Y-27100D01*
X59600Y-23900D02*
X61900Y-26200D01*
X56800Y-23900D02*
X59600Y-23900D01*
X54606Y-21706D02*
X56800Y-23900D01*
X40706Y-26409D02*
X40200Y-26915D01*
X46149Y-25549D02*
X46149Y-26125D01*
X45700Y-25100D02*
X46149Y-25549D01*
X43400Y-25100D02*
X45700Y-25100D01*
X42500Y-26000D02*
X43400Y-25100D01*
X42500Y-27800D02*
X42500Y-26000D01*
X42000Y-28300D02*
X42500Y-27800D01*
X40700Y-28300D02*
X42000Y-28300D01*
X40200Y-27800D02*
X40700Y-28300D01*
X40200Y-26915D02*
X40200Y-27800D01*
X47500Y-22493D02*
X48593Y-22493D01*
X58000Y-25700D02*
X58000Y-26710D01*
X57500Y-25200D02*
X58000Y-25700D01*
X54400Y-25200D02*
X57500Y-25200D01*
X53200Y-24000D02*
X54400Y-25200D01*
X50100Y-24000D02*
X53200Y-24000D01*
X48593Y-22493D02*
X50100Y-24000D01*
X63000Y-26710D02*
X63000Y-25600D01*
X59893Y-22493D02*
X57500Y-22493D01*
X63000Y-25600D02*
X59893Y-22493D01*
X41493Y-27000D02*
X41493Y-26006D01*
X54410Y-26710D02*
X55500Y-26710D01*
X52300Y-24600D02*
X54410Y-26710D01*
X42900Y-24600D02*
X52300Y-24600D01*
X41493Y-26006D02*
X42900Y-24600D01*
X52500Y-22493D02*
X53693Y-22493D01*
X60500Y-25900D02*
X60500Y-26710D01*
X59200Y-24600D02*
X60500Y-25900D01*
X55800Y-24600D02*
X59200Y-24600D01*
X53693Y-22493D02*
X55800Y-24600D01*
X69790Y-41000D02*
X73500Y-41000D01*
X75000Y-39500D02*
X76318Y-39500D01*
X73500Y-41000D02*
X75000Y-39500D01*
G54D50*
X48500Y-35210D02*
X48500Y-31790D01*
G54D51*
X55250Y-33790D02*
X55250Y-37450D01*
X55250Y-37450D02*
X55300Y-37500D01*
X56000Y-41000D02*
X56000Y-39000D01*
X55300Y-38300D02*
X55300Y-37500D01*
X56000Y-39000D02*
X55300Y-38300D01*
X57750Y-33790D02*
X57750Y-37450D01*
X57750Y-37450D02*
X57700Y-37500D01*
X57000Y-41000D02*
X57000Y-39000D01*
X57700Y-38300D02*
X57700Y-37500D01*
X57000Y-39000D02*
X57700Y-38300D01*
G54D50*
X47500Y-52290D02*
X50000Y-52290D01*
X46000Y-53000D02*
X46710Y-52290D01*
X46710Y-52290D02*
X47500Y-52290D01*
X44250Y-52661D02*
X44250Y-53450D01*
X44250Y-53450D02*
X44600Y-53800D01*
X44600Y-53800D02*
X45200Y-53800D01*
X45200Y-53800D02*
X46000Y-53000D01*
X43250Y-52661D02*
X43250Y-51950D01*
X43250Y-51950D02*
X43400Y-51800D01*
X43400Y-51800D02*
X44100Y-51800D01*
X44100Y-51800D02*
X44250Y-51950D01*
X44250Y-51950D02*
X44250Y-52661D01*
G54D10*
G36*
X59350Y-38979D02*
X58179Y-40150D01*
X57325Y-40150D01*
X57325Y-39134D01*
X57929Y-38529D01*
X57929Y-38529D01*
X57929Y-38529D01*
X58000Y-38424D01*
X58000Y-38424D01*
X58020Y-38324D01*
X58025Y-38300D01*
X58024Y-38300D01*
X58025Y-38300D01*
X58025Y-37996D01*
X58536Y-37996D01*
X58628Y-37958D01*
X58699Y-37887D01*
X58737Y-37796D01*
X58737Y-37696D01*
X58737Y-37204D01*
X58699Y-37112D01*
X58629Y-37042D01*
X58537Y-37003D01*
X58437Y-37003D01*
X58075Y-37003D01*
X58075Y-34440D01*
X58199Y-34440D01*
X58291Y-34402D01*
X58361Y-34331D01*
X58399Y-34239D01*
X58400Y-34140D01*
X58400Y-33340D01*
X58400Y-32659D01*
X58400Y-31760D01*
X58362Y-31668D01*
X58291Y-31598D01*
X58199Y-31560D01*
X58100Y-31559D01*
X57837Y-31560D01*
X57775Y-31622D01*
X57775Y-32185D01*
X58337Y-32185D01*
X58400Y-32122D01*
X58400Y-31760D01*
X58400Y-32659D01*
X58400Y-32297D01*
X58337Y-32235D01*
X57775Y-32235D01*
X57775Y-32797D01*
X57837Y-32860D01*
X58100Y-32860D01*
X58199Y-32859D01*
X58291Y-32821D01*
X58362Y-32751D01*
X58400Y-32659D01*
X58400Y-33340D01*
X58362Y-33248D01*
X58291Y-33178D01*
X58199Y-33140D01*
X58100Y-33139D01*
X57725Y-33139D01*
X57725Y-32797D01*
X57725Y-32235D01*
X57725Y-32185D01*
X57725Y-31622D01*
X57662Y-31560D01*
X57399Y-31559D01*
X57300Y-31560D01*
X57208Y-31598D01*
X57137Y-31668D01*
X57099Y-31760D01*
X57100Y-32122D01*
X57162Y-32185D01*
X57725Y-32185D01*
X57725Y-32235D01*
X57162Y-32235D01*
X57100Y-32297D01*
X57099Y-32659D01*
X57137Y-32751D01*
X57208Y-32821D01*
X57300Y-32859D01*
X57399Y-32860D01*
X57662Y-32860D01*
X57725Y-32797D01*
X57725Y-33139D01*
X57300Y-33139D01*
X57208Y-33177D01*
X57138Y-33248D01*
X57100Y-33340D01*
X57099Y-33439D01*
X57099Y-34239D01*
X57137Y-34331D01*
X57208Y-34401D01*
X57300Y-34439D01*
X57399Y-34440D01*
X57425Y-34440D01*
X57425Y-37003D01*
X56863Y-37003D01*
X56771Y-37041D01*
X56700Y-37112D01*
X56662Y-37203D01*
X56662Y-37303D01*
X56662Y-37795D01*
X56700Y-37887D01*
X56770Y-37957D01*
X56862Y-37996D01*
X56962Y-37996D01*
X57375Y-37996D01*
X57375Y-38165D01*
X56770Y-38770D01*
X56699Y-38875D01*
X56675Y-39000D01*
X56675Y-40150D01*
X56325Y-40150D01*
X56325Y-39000D01*
X56324Y-38999D01*
X56325Y-38999D01*
X56320Y-38975D01*
X56300Y-38875D01*
X56300Y-38875D01*
X56229Y-38770D01*
X56229Y-38770D01*
X55625Y-38165D01*
X55625Y-37996D01*
X56136Y-37996D01*
X56228Y-37958D01*
X56299Y-37887D01*
X56337Y-37796D01*
X56337Y-37696D01*
X56337Y-37204D01*
X56299Y-37112D01*
X56229Y-37042D01*
X56137Y-37003D01*
X56037Y-37003D01*
X55575Y-37003D01*
X55575Y-34440D01*
X55699Y-34440D01*
X55791Y-34402D01*
X55861Y-34331D01*
X55899Y-34239D01*
X55900Y-34140D01*
X55900Y-33340D01*
X55900Y-32659D01*
X55900Y-31760D01*
X55862Y-31668D01*
X55791Y-31598D01*
X55699Y-31560D01*
X55600Y-31559D01*
X55337Y-31560D01*
X55275Y-31622D01*
X55275Y-32185D01*
X55837Y-32185D01*
X55900Y-32122D01*
X55900Y-31760D01*
X55900Y-32659D01*
X55900Y-32297D01*
X55837Y-32235D01*
X55275Y-32235D01*
X55275Y-32797D01*
X55337Y-32860D01*
X55600Y-32860D01*
X55699Y-32859D01*
X55791Y-32821D01*
X55862Y-32751D01*
X55900Y-32659D01*
X55900Y-33340D01*
X55862Y-33248D01*
X55791Y-33178D01*
X55699Y-33140D01*
X55600Y-33139D01*
X55225Y-33139D01*
X55225Y-32797D01*
X55225Y-32235D01*
X55225Y-32185D01*
X55225Y-31622D01*
X55162Y-31560D01*
X54899Y-31559D01*
X54800Y-31560D01*
X54708Y-31598D01*
X54637Y-31668D01*
X54599Y-31760D01*
X54600Y-32122D01*
X54662Y-32185D01*
X55225Y-32185D01*
X55225Y-32235D01*
X54662Y-32235D01*
X54600Y-32297D01*
X54599Y-32659D01*
X54637Y-32751D01*
X54708Y-32821D01*
X54800Y-32859D01*
X54899Y-32860D01*
X55162Y-32860D01*
X55225Y-32797D01*
X55225Y-33139D01*
X54800Y-33139D01*
X54708Y-33177D01*
X54638Y-33248D01*
X54600Y-33340D01*
X54599Y-33439D01*
X54599Y-34239D01*
X54637Y-34331D01*
X54708Y-34401D01*
X54800Y-34439D01*
X54899Y-34440D01*
X54925Y-34440D01*
X54925Y-37003D01*
X54463Y-37003D01*
X54371Y-37041D01*
X54300Y-37112D01*
X54262Y-37203D01*
X54262Y-37303D01*
X54262Y-37795D01*
X54300Y-37887D01*
X54370Y-37957D01*
X54462Y-37996D01*
X54562Y-37996D01*
X54975Y-37996D01*
X54975Y-38300D01*
X54999Y-38424D01*
X55070Y-38529D01*
X55675Y-39134D01*
X55675Y-40150D01*
X55220Y-40150D01*
X53650Y-38579D01*
X53650Y-31050D01*
X59350Y-31050D01*
X59350Y-38979D01*
X59350Y-38979D01*
G37*
G54D50*
X59350Y-38979D02*
X58179Y-40150D01*
X57325Y-40150D01*
X57325Y-39134D01*
X57929Y-38529D01*
X57929Y-38529D01*
X57929Y-38529D01*
X58000Y-38424D01*
X58000Y-38424D01*
X58020Y-38324D01*
X58025Y-38300D01*
X58024Y-38300D01*
X58025Y-38300D01*
X58025Y-37996D01*
X58536Y-37996D01*
X58628Y-37958D01*
X58699Y-37887D01*
X58737Y-37796D01*
X58737Y-37696D01*
X58737Y-37204D01*
X58699Y-37112D01*
X58629Y-37042D01*
X58537Y-37003D01*
X58437Y-37003D01*
X58075Y-37003D01*
X58075Y-34440D01*
X58199Y-34440D01*
X58291Y-34402D01*
X58361Y-34331D01*
X58399Y-34239D01*
X58400Y-34140D01*
X58400Y-33340D01*
X58400Y-32659D01*
X58400Y-31760D01*
X58362Y-31668D01*
X58291Y-31598D01*
X58199Y-31560D01*
X58100Y-31559D01*
X57837Y-31560D01*
X57775Y-31622D01*
X57775Y-32185D01*
X58337Y-32185D01*
X58400Y-32122D01*
X58400Y-31760D01*
X58400Y-32659D01*
X58400Y-32297D01*
X58337Y-32235D01*
X57775Y-32235D01*
X57775Y-32797D01*
X57837Y-32860D01*
X58100Y-32860D01*
X58199Y-32859D01*
X58291Y-32821D01*
X58362Y-32751D01*
X58400Y-32659D01*
X58400Y-33340D01*
X58362Y-33248D01*
X58291Y-33178D01*
X58199Y-33140D01*
X58100Y-33139D01*
X57725Y-33139D01*
X57725Y-32797D01*
X57725Y-32235D01*
X57725Y-32185D01*
X57725Y-31622D01*
X57662Y-31560D01*
X57399Y-31559D01*
X57300Y-31560D01*
X57208Y-31598D01*
X57137Y-31668D01*
X57099Y-31760D01*
X57100Y-32122D01*
X57162Y-32185D01*
X57725Y-32185D01*
X57725Y-32235D01*
X57162Y-32235D01*
X57100Y-32297D01*
X57099Y-32659D01*
X57137Y-32751D01*
X57208Y-32821D01*
X57300Y-32859D01*
X57399Y-32860D01*
X57662Y-32860D01*
X57725Y-32797D01*
X57725Y-33139D01*
X57300Y-33139D01*
X57208Y-33177D01*
X57138Y-33248D01*
X57100Y-33340D01*
X57099Y-33439D01*
X57099Y-34239D01*
X57137Y-34331D01*
X57208Y-34401D01*
X57300Y-34439D01*
X57399Y-34440D01*
X57425Y-34440D01*
X57425Y-37003D01*
X56863Y-37003D01*
X56771Y-37041D01*
X56700Y-37112D01*
X56662Y-37203D01*
X56662Y-37303D01*
X56662Y-37795D01*
X56700Y-37887D01*
X56770Y-37957D01*
X56862Y-37996D01*
X56962Y-37996D01*
X57375Y-37996D01*
X57375Y-38165D01*
X56770Y-38770D01*
X56699Y-38875D01*
X56675Y-39000D01*
X56675Y-40150D01*
X56325Y-40150D01*
X56325Y-39000D01*
X56324Y-38999D01*
X56325Y-38999D01*
X56320Y-38975D01*
X56300Y-38875D01*
X56300Y-38875D01*
X56229Y-38770D01*
X56229Y-38770D01*
X55625Y-38165D01*
X55625Y-37996D01*
X56136Y-37996D01*
X56228Y-37958D01*
X56299Y-37887D01*
X56337Y-37796D01*
X56337Y-37696D01*
X56337Y-37204D01*
X56299Y-37112D01*
X56229Y-37042D01*
X56137Y-37003D01*
X56037Y-37003D01*
X55575Y-37003D01*
X55575Y-34440D01*
X55699Y-34440D01*
X55791Y-34402D01*
X55861Y-34331D01*
X55899Y-34239D01*
X55900Y-34140D01*
X55900Y-33340D01*
X55900Y-32659D01*
X55900Y-31760D01*
X55862Y-31668D01*
X55791Y-31598D01*
X55699Y-31560D01*
X55600Y-31559D01*
X55337Y-31560D01*
X55275Y-31622D01*
X55275Y-32185D01*
X55837Y-32185D01*
X55900Y-32122D01*
X55900Y-31760D01*
X55900Y-32659D01*
X55900Y-32297D01*
X55837Y-32235D01*
X55275Y-32235D01*
X55275Y-32797D01*
X55337Y-32860D01*
X55600Y-32860D01*
X55699Y-32859D01*
X55791Y-32821D01*
X55862Y-32751D01*
X55900Y-32659D01*
X55900Y-33340D01*
X55862Y-33248D01*
X55791Y-33178D01*
X55699Y-33140D01*
X55600Y-33139D01*
X55225Y-33139D01*
X55225Y-32797D01*
X55225Y-32235D01*
X55225Y-32185D01*
X55225Y-31622D01*
X55162Y-31560D01*
X54899Y-31559D01*
X54800Y-31560D01*
X54708Y-31598D01*
X54637Y-31668D01*
X54599Y-31760D01*
X54600Y-32122D01*
X54662Y-32185D01*
X55225Y-32185D01*
X55225Y-32235D01*
X54662Y-32235D01*
X54600Y-32297D01*
X54599Y-32659D01*
X54637Y-32751D01*
X54708Y-32821D01*
X54800Y-32859D01*
X54899Y-32860D01*
X55162Y-32860D01*
X55225Y-32797D01*
X55225Y-33139D01*
X54800Y-33139D01*
X54708Y-33177D01*
X54638Y-33248D01*
X54600Y-33340D01*
X54599Y-33439D01*
X54599Y-34239D01*
X54637Y-34331D01*
X54708Y-34401D01*
X54800Y-34439D01*
X54899Y-34440D01*
X54925Y-34440D01*
X54925Y-37003D01*
X54463Y-37003D01*
X54371Y-37041D01*
X54300Y-37112D01*
X54262Y-37203D01*
X54262Y-37303D01*
X54262Y-37795D01*
X54300Y-37887D01*
X54370Y-37957D01*
X54462Y-37996D01*
X54562Y-37996D01*
X54975Y-37996D01*
X54975Y-38300D01*
X54999Y-38424D01*
X55070Y-38529D01*
X55675Y-39134D01*
X55675Y-40150D01*
X55220Y-40150D01*
X53650Y-38579D01*
X53650Y-31050D01*
X59350Y-31050D01*
X59350Y-38979D01*
G54D10*
G36*
X80350Y-42500D02*
X79650Y-42500D01*
X79650Y-33329D01*
X79650Y-30670D01*
X79627Y-30615D01*
X79585Y-30572D01*
X79529Y-30550D01*
X79470Y-30549D01*
X78112Y-30550D01*
X78075Y-30587D01*
X78075Y-31925D01*
X79612Y-31925D01*
X79650Y-31887D01*
X79650Y-30670D01*
X79650Y-33329D01*
X79650Y-32112D01*
X79612Y-32075D01*
X78075Y-32075D01*
X78075Y-33412D01*
X78112Y-33450D01*
X79470Y-33450D01*
X79529Y-33449D01*
X79585Y-33427D01*
X79627Y-33384D01*
X79650Y-33329D01*
X79650Y-42500D01*
X77620Y-42500D01*
X76900Y-41779D01*
X76900Y-41550D01*
X78450Y-41550D01*
X78450Y-37350D01*
X76750Y-37350D01*
X76750Y-36179D01*
X75650Y-35079D01*
X75650Y-34550D01*
X75350Y-34550D01*
X75350Y-33650D01*
X76550Y-33650D01*
X76550Y-33450D01*
X77887Y-33450D01*
X77925Y-33412D01*
X77925Y-32075D01*
X77917Y-32075D01*
X77917Y-31925D01*
X77925Y-31925D01*
X77925Y-30587D01*
X77887Y-30550D01*
X77606Y-30549D01*
X77606Y-27756D01*
X77606Y-27374D01*
X77424Y-27374D01*
X77387Y-27412D01*
X77387Y-27614D01*
X77387Y-27674D01*
X77410Y-27729D01*
X77452Y-27771D01*
X77507Y-27794D01*
X77568Y-27794D01*
X77606Y-27756D01*
X77606Y-30549D01*
X76550Y-30549D01*
X76550Y-30450D01*
X75350Y-30450D01*
X75350Y-29150D01*
X75750Y-29150D01*
X75750Y-27850D01*
X75550Y-27850D01*
X75550Y-26700D01*
X75550Y-26250D01*
X77250Y-26250D01*
X77250Y-26950D01*
X77387Y-26950D01*
X77387Y-26984D01*
X77387Y-27187D01*
X77424Y-27224D01*
X77606Y-27224D01*
X77606Y-27216D01*
X77743Y-27216D01*
X77743Y-27224D01*
X77750Y-27224D01*
X77750Y-27374D01*
X77743Y-27374D01*
X77743Y-27756D01*
X77750Y-27762D01*
X77750Y-27850D01*
X80350Y-27850D01*
X80350Y-42500D01*
X80350Y-42500D01*
G37*
G54D50*
X80350Y-42500D02*
X79650Y-42500D01*
X79650Y-33329D01*
X79650Y-30670D01*
X79627Y-30615D01*
X79585Y-30572D01*
X79529Y-30550D01*
X79470Y-30549D01*
X78112Y-30550D01*
X78075Y-30587D01*
X78075Y-31925D01*
X79612Y-31925D01*
X79650Y-31887D01*
X79650Y-30670D01*
X79650Y-33329D01*
X79650Y-32112D01*
X79612Y-32075D01*
X78075Y-32075D01*
X78075Y-33412D01*
X78112Y-33450D01*
X79470Y-33450D01*
X79529Y-33449D01*
X79585Y-33427D01*
X79627Y-33384D01*
X79650Y-33329D01*
X79650Y-42500D01*
X77620Y-42500D01*
X76900Y-41779D01*
X76900Y-41550D01*
X78450Y-41550D01*
X78450Y-37350D01*
X76750Y-37350D01*
X76750Y-36179D01*
X75650Y-35079D01*
X75650Y-34550D01*
X75350Y-34550D01*
X75350Y-33650D01*
X76550Y-33650D01*
X76550Y-33450D01*
X77887Y-33450D01*
X77925Y-33412D01*
X77925Y-32075D01*
X77917Y-32075D01*
X77917Y-31925D01*
X77925Y-31925D01*
X77925Y-30587D01*
X77887Y-30550D01*
X77606Y-30549D01*
X77606Y-27756D01*
X77606Y-27374D01*
X77424Y-27374D01*
X77387Y-27412D01*
X77387Y-27614D01*
X77387Y-27674D01*
X77410Y-27729D01*
X77452Y-27771D01*
X77507Y-27794D01*
X77568Y-27794D01*
X77606Y-27756D01*
X77606Y-30549D01*
X76550Y-30549D01*
X76550Y-30450D01*
X75350Y-30450D01*
X75350Y-29150D01*
X75750Y-29150D01*
X75750Y-27850D01*
X75550Y-27850D01*
X75550Y-26700D01*
X75550Y-26250D01*
X77250Y-26250D01*
X77250Y-26950D01*
X77387Y-26950D01*
X77387Y-26984D01*
X77387Y-27187D01*
X77424Y-27224D01*
X77606Y-27224D01*
X77606Y-27216D01*
X77743Y-27216D01*
X77743Y-27224D01*
X77750Y-27224D01*
X77750Y-27374D01*
X77743Y-27374D01*
X77743Y-27756D01*
X77750Y-27762D01*
X77750Y-27850D01*
X80350Y-27850D01*
X80350Y-42500D01*
G54D10*
G36*
X80350Y-27650D02*
X78712Y-27650D01*
X78712Y-27614D01*
X78712Y-27412D01*
X78675Y-27374D01*
X78493Y-27374D01*
X78493Y-27382D01*
X78356Y-27382D01*
X78356Y-27374D01*
X78300Y-27374D01*
X78174Y-27374D01*
X78118Y-27374D01*
X78118Y-27382D01*
X77981Y-27382D01*
X77981Y-27374D01*
X77967Y-27374D01*
X77967Y-27224D01*
X77981Y-27224D01*
X77981Y-27216D01*
X78118Y-27216D01*
X78118Y-27224D01*
X78174Y-27224D01*
X78300Y-27224D01*
X78356Y-27224D01*
X78356Y-27216D01*
X78493Y-27216D01*
X78493Y-27224D01*
X78675Y-27224D01*
X78712Y-27187D01*
X78712Y-27050D01*
X78750Y-27050D01*
X78750Y-26250D01*
X78712Y-26250D01*
X78712Y-25685D01*
X78712Y-25625D01*
X78689Y-25570D01*
X78647Y-25528D01*
X78592Y-25505D01*
X78531Y-25505D01*
X78493Y-25543D01*
X78493Y-25925D01*
X78675Y-25925D01*
X78712Y-25887D01*
X78712Y-25685D01*
X78712Y-26250D01*
X78712Y-26250D01*
X78712Y-26112D01*
X78675Y-26075D01*
X78493Y-26075D01*
X78493Y-26083D01*
X78356Y-26083D01*
X78356Y-26075D01*
X78356Y-25925D01*
X78356Y-25543D01*
X78318Y-25505D01*
X78257Y-25505D01*
X78237Y-25514D01*
X78217Y-25505D01*
X78156Y-25505D01*
X78118Y-25543D01*
X78118Y-25925D01*
X78174Y-25925D01*
X78300Y-25925D01*
X78356Y-25925D01*
X78356Y-26075D01*
X78300Y-26075D01*
X78174Y-26075D01*
X78118Y-26075D01*
X78118Y-26083D01*
X77981Y-26083D01*
X77981Y-26075D01*
X77967Y-26075D01*
X77967Y-25925D01*
X77981Y-25925D01*
X77981Y-25543D01*
X77950Y-25512D01*
X77950Y-25450D01*
X77350Y-25450D01*
X77350Y-25750D01*
X75550Y-25750D01*
X75550Y-25250D01*
X74450Y-25250D01*
X74450Y-21750D01*
X72150Y-21750D01*
X72150Y-21962D01*
X72125Y-21987D01*
X72125Y-22425D01*
X72132Y-22425D01*
X72132Y-22575D01*
X72125Y-22575D01*
X72125Y-23012D01*
X72150Y-23037D01*
X72150Y-23450D01*
X71975Y-23450D01*
X71975Y-23012D01*
X71975Y-22575D01*
X71975Y-22425D01*
X71975Y-21987D01*
X71937Y-21950D01*
X71620Y-21949D01*
X71565Y-21972D01*
X71522Y-22014D01*
X71500Y-22070D01*
X71499Y-22129D01*
X71500Y-22387D01*
X71537Y-22425D01*
X71975Y-22425D01*
X71975Y-22575D01*
X71537Y-22575D01*
X71500Y-22612D01*
X71499Y-22870D01*
X71500Y-22929D01*
X71522Y-22985D01*
X71565Y-23027D01*
X71620Y-23050D01*
X71937Y-23050D01*
X71975Y-23012D01*
X71975Y-23450D01*
X71150Y-23450D01*
X71150Y-20350D01*
X75750Y-20350D01*
X75750Y-23120D01*
X77179Y-24550D01*
X80350Y-24550D01*
X80350Y-27650D01*
X80350Y-27650D01*
G37*
G54D50*
X80350Y-27650D02*
X78712Y-27650D01*
X78712Y-27614D01*
X78712Y-27412D01*
X78675Y-27374D01*
X78493Y-27374D01*
X78493Y-27382D01*
X78356Y-27382D01*
X78356Y-27374D01*
X78300Y-27374D01*
X78174Y-27374D01*
X78118Y-27374D01*
X78118Y-27382D01*
X77981Y-27382D01*
X77981Y-27374D01*
X77967Y-27374D01*
X77967Y-27224D01*
X77981Y-27224D01*
X77981Y-27216D01*
X78118Y-27216D01*
X78118Y-27224D01*
X78174Y-27224D01*
X78300Y-27224D01*
X78356Y-27224D01*
X78356Y-27216D01*
X78493Y-27216D01*
X78493Y-27224D01*
X78675Y-27224D01*
X78712Y-27187D01*
X78712Y-27050D01*
X78750Y-27050D01*
X78750Y-26250D01*
X78712Y-26250D01*
X78712Y-25685D01*
X78712Y-25625D01*
X78689Y-25570D01*
X78647Y-25528D01*
X78592Y-25505D01*
X78531Y-25505D01*
X78493Y-25543D01*
X78493Y-25925D01*
X78675Y-25925D01*
X78712Y-25887D01*
X78712Y-25685D01*
X78712Y-26250D01*
X78712Y-26250D01*
X78712Y-26112D01*
X78675Y-26075D01*
X78493Y-26075D01*
X78493Y-26083D01*
X78356Y-26083D01*
X78356Y-26075D01*
X78356Y-25925D01*
X78356Y-25543D01*
X78318Y-25505D01*
X78257Y-25505D01*
X78237Y-25514D01*
X78217Y-25505D01*
X78156Y-25505D01*
X78118Y-25543D01*
X78118Y-25925D01*
X78174Y-25925D01*
X78300Y-25925D01*
X78356Y-25925D01*
X78356Y-26075D01*
X78300Y-26075D01*
X78174Y-26075D01*
X78118Y-26075D01*
X78118Y-26083D01*
X77981Y-26083D01*
X77981Y-26075D01*
X77967Y-26075D01*
X77967Y-25925D01*
X77981Y-25925D01*
X77981Y-25543D01*
X77950Y-25512D01*
X77950Y-25450D01*
X77350Y-25450D01*
X77350Y-25750D01*
X75550Y-25750D01*
X75550Y-25250D01*
X74450Y-25250D01*
X74450Y-21750D01*
X72150Y-21750D01*
X72150Y-21962D01*
X72125Y-21987D01*
X72125Y-22425D01*
X72132Y-22425D01*
X72132Y-22575D01*
X72125Y-22575D01*
X72125Y-23012D01*
X72150Y-23037D01*
X72150Y-23450D01*
X71975Y-23450D01*
X71975Y-23012D01*
X71975Y-22575D01*
X71975Y-22425D01*
X71975Y-21987D01*
X71937Y-21950D01*
X71620Y-21949D01*
X71565Y-21972D01*
X71522Y-22014D01*
X71500Y-22070D01*
X71499Y-22129D01*
X71500Y-22387D01*
X71537Y-22425D01*
X71975Y-22425D01*
X71975Y-22575D01*
X71537Y-22575D01*
X71500Y-22612D01*
X71499Y-22870D01*
X71500Y-22929D01*
X71522Y-22985D01*
X71565Y-23027D01*
X71620Y-23050D01*
X71937Y-23050D01*
X71975Y-23012D01*
X71975Y-23450D01*
X71150Y-23450D01*
X71150Y-20350D01*
X75750Y-20350D01*
X75750Y-23120D01*
X77179Y-24550D01*
X80350Y-24550D01*
X80350Y-27650D01*
G54D10*
G36*
X75250Y-27750D02*
X72900Y-27750D01*
X72250Y-27750D01*
X72250Y-28250D01*
X72393Y-28250D01*
X72393Y-28387D01*
X72430Y-28425D01*
X73019Y-28425D01*
X73019Y-28417D01*
X73169Y-28417D01*
X73169Y-28425D01*
X73177Y-28425D01*
X73177Y-28575D01*
X73169Y-28575D01*
X73169Y-28582D01*
X73019Y-28582D01*
X73019Y-28575D01*
X72430Y-28575D01*
X72393Y-28612D01*
X72393Y-28750D01*
X72250Y-28750D01*
X72250Y-29250D01*
X72900Y-29250D01*
X74650Y-29250D01*
X74650Y-30450D01*
X73320Y-30450D01*
X72920Y-30050D01*
X71550Y-30050D01*
X71550Y-29650D01*
X68750Y-29650D01*
X68750Y-28150D01*
X70250Y-28150D01*
X70250Y-27850D01*
X70205Y-27850D01*
X70205Y-27846D01*
X70167Y-27809D01*
X69736Y-27809D01*
X69736Y-27832D01*
X69586Y-27832D01*
X69586Y-27809D01*
X69578Y-27809D01*
X69578Y-27690D01*
X69586Y-27690D01*
X69586Y-27667D01*
X69736Y-27667D01*
X69736Y-27690D01*
X70167Y-27690D01*
X70205Y-27653D01*
X70205Y-27650D01*
X70250Y-27650D01*
X70250Y-27350D01*
X70205Y-27350D01*
X70205Y-27346D01*
X70167Y-27309D01*
X69736Y-27309D01*
X69736Y-27332D01*
X69586Y-27332D01*
X69586Y-27309D01*
X69578Y-27309D01*
X69578Y-27190D01*
X69586Y-27190D01*
X69586Y-27167D01*
X69736Y-27167D01*
X69736Y-27190D01*
X70167Y-27190D01*
X70205Y-27153D01*
X70205Y-27150D01*
X70250Y-27150D01*
X70250Y-26850D01*
X70205Y-26850D01*
X70205Y-26846D01*
X70167Y-26809D01*
X69736Y-26809D01*
X69736Y-26832D01*
X69586Y-26832D01*
X69586Y-26809D01*
X69578Y-26809D01*
X69578Y-26690D01*
X69586Y-26690D01*
X69586Y-26667D01*
X69736Y-26667D01*
X69736Y-26690D01*
X70167Y-26690D01*
X70205Y-26653D01*
X70205Y-26650D01*
X70250Y-26650D01*
X70250Y-26350D01*
X70205Y-26350D01*
X70205Y-26346D01*
X70167Y-26309D01*
X69736Y-26309D01*
X69736Y-26332D01*
X69586Y-26332D01*
X69586Y-26309D01*
X69578Y-26309D01*
X69578Y-26190D01*
X69586Y-26190D01*
X69586Y-26167D01*
X69736Y-26167D01*
X69736Y-26190D01*
X70167Y-26190D01*
X70205Y-26153D01*
X70205Y-26150D01*
X70250Y-26150D01*
X70250Y-25850D01*
X66850Y-25850D01*
X66850Y-24050D01*
X67750Y-24050D01*
X67750Y-20350D01*
X70850Y-20350D01*
X70850Y-23750D01*
X72450Y-23750D01*
X72450Y-23250D01*
X72750Y-23250D01*
X72750Y-22050D01*
X73133Y-22050D01*
X73113Y-22080D01*
X73427Y-22393D01*
X73740Y-22080D01*
X73720Y-22050D01*
X74150Y-22050D01*
X74150Y-25250D01*
X73984Y-25250D01*
X73984Y-22556D01*
X73964Y-22338D01*
X73920Y-22234D01*
X73846Y-22186D01*
X73533Y-22500D01*
X73846Y-22813D01*
X73920Y-22765D01*
X73984Y-22556D01*
X73984Y-25250D01*
X73740Y-25250D01*
X73740Y-22919D01*
X73427Y-22606D01*
X73320Y-22712D01*
X73320Y-22500D01*
X73007Y-22186D01*
X72933Y-22234D01*
X72869Y-22443D01*
X72889Y-22661D01*
X72933Y-22765D01*
X73007Y-22813D01*
X73320Y-22500D01*
X73320Y-22712D01*
X73113Y-22919D01*
X73161Y-22993D01*
X73370Y-23057D01*
X73588Y-23037D01*
X73692Y-22993D01*
X73740Y-22919D01*
X73740Y-25250D01*
X72550Y-25250D01*
X72550Y-25650D01*
X72659Y-25650D01*
X72660Y-25887D01*
X72697Y-25925D01*
X73135Y-25925D01*
X73135Y-25917D01*
X73285Y-25917D01*
X73285Y-25925D01*
X73292Y-25925D01*
X73292Y-26075D01*
X73285Y-26075D01*
X73285Y-26082D01*
X73135Y-26082D01*
X73135Y-26075D01*
X72697Y-26075D01*
X72660Y-26112D01*
X72659Y-26350D01*
X72550Y-26350D01*
X72550Y-26750D01*
X75250Y-26750D01*
X75250Y-27750D01*
X75250Y-27750D01*
G37*
G54D50*
X75250Y-27750D02*
X72900Y-27750D01*
X72250Y-27750D01*
X72250Y-28250D01*
X72393Y-28250D01*
X72393Y-28387D01*
X72430Y-28425D01*
X73019Y-28425D01*
X73019Y-28417D01*
X73169Y-28417D01*
X73169Y-28425D01*
X73177Y-28425D01*
X73177Y-28575D01*
X73169Y-28575D01*
X73169Y-28582D01*
X73019Y-28582D01*
X73019Y-28575D01*
X72430Y-28575D01*
X72393Y-28612D01*
X72393Y-28750D01*
X72250Y-28750D01*
X72250Y-29250D01*
X72900Y-29250D01*
X74650Y-29250D01*
X74650Y-30450D01*
X73320Y-30450D01*
X72920Y-30050D01*
X71550Y-30050D01*
X71550Y-29650D01*
X68750Y-29650D01*
X68750Y-28150D01*
X70250Y-28150D01*
X70250Y-27850D01*
X70205Y-27850D01*
X70205Y-27846D01*
X70167Y-27809D01*
X69736Y-27809D01*
X69736Y-27832D01*
X69586Y-27832D01*
X69586Y-27809D01*
X69578Y-27809D01*
X69578Y-27690D01*
X69586Y-27690D01*
X69586Y-27667D01*
X69736Y-27667D01*
X69736Y-27690D01*
X70167Y-27690D01*
X70205Y-27653D01*
X70205Y-27650D01*
X70250Y-27650D01*
X70250Y-27350D01*
X70205Y-27350D01*
X70205Y-27346D01*
X70167Y-27309D01*
X69736Y-27309D01*
X69736Y-27332D01*
X69586Y-27332D01*
X69586Y-27309D01*
X69578Y-27309D01*
X69578Y-27190D01*
X69586Y-27190D01*
X69586Y-27167D01*
X69736Y-27167D01*
X69736Y-27190D01*
X70167Y-27190D01*
X70205Y-27153D01*
X70205Y-27150D01*
X70250Y-27150D01*
X70250Y-26850D01*
X70205Y-26850D01*
X70205Y-26846D01*
X70167Y-26809D01*
X69736Y-26809D01*
X69736Y-26832D01*
X69586Y-26832D01*
X69586Y-26809D01*
X69578Y-26809D01*
X69578Y-26690D01*
X69586Y-26690D01*
X69586Y-26667D01*
X69736Y-26667D01*
X69736Y-26690D01*
X70167Y-26690D01*
X70205Y-26653D01*
X70205Y-26650D01*
X70250Y-26650D01*
X70250Y-26350D01*
X70205Y-26350D01*
X70205Y-26346D01*
X70167Y-26309D01*
X69736Y-26309D01*
X69736Y-26332D01*
X69586Y-26332D01*
X69586Y-26309D01*
X69578Y-26309D01*
X69578Y-26190D01*
X69586Y-26190D01*
X69586Y-26167D01*
X69736Y-26167D01*
X69736Y-26190D01*
X70167Y-26190D01*
X70205Y-26153D01*
X70205Y-26150D01*
X70250Y-26150D01*
X70250Y-25850D01*
X66850Y-25850D01*
X66850Y-24050D01*
X67750Y-24050D01*
X67750Y-20350D01*
X70850Y-20350D01*
X70850Y-23750D01*
X72450Y-23750D01*
X72450Y-23250D01*
X72750Y-23250D01*
X72750Y-22050D01*
X73133Y-22050D01*
X73113Y-22080D01*
X73427Y-22393D01*
X73740Y-22080D01*
X73720Y-22050D01*
X74150Y-22050D01*
X74150Y-25250D01*
X73984Y-25250D01*
X73984Y-22556D01*
X73964Y-22338D01*
X73920Y-22234D01*
X73846Y-22186D01*
X73533Y-22500D01*
X73846Y-22813D01*
X73920Y-22765D01*
X73984Y-22556D01*
X73984Y-25250D01*
X73740Y-25250D01*
X73740Y-22919D01*
X73427Y-22606D01*
X73320Y-22712D01*
X73320Y-22500D01*
X73007Y-22186D01*
X72933Y-22234D01*
X72869Y-22443D01*
X72889Y-22661D01*
X72933Y-22765D01*
X73007Y-22813D01*
X73320Y-22500D01*
X73320Y-22712D01*
X73113Y-22919D01*
X73161Y-22993D01*
X73370Y-23057D01*
X73588Y-23037D01*
X73692Y-22993D01*
X73740Y-22919D01*
X73740Y-25250D01*
X72550Y-25250D01*
X72550Y-25650D01*
X72659Y-25650D01*
X72660Y-25887D01*
X72697Y-25925D01*
X73135Y-25925D01*
X73135Y-25917D01*
X73285Y-25917D01*
X73285Y-25925D01*
X73292Y-25925D01*
X73292Y-26075D01*
X73285Y-26075D01*
X73285Y-26082D01*
X73135Y-26082D01*
X73135Y-26075D01*
X72697Y-26075D01*
X72660Y-26112D01*
X72659Y-26350D01*
X72550Y-26350D01*
X72550Y-26750D01*
X75250Y-26750D01*
X75250Y-27750D01*
M02*
