G04 (created by PCBNEW (2013-mar-13)-testing) date Mon 25 Mar 2013 11:40:00 PM EDT*
%MOIN*%
G04 Gerber Fmt 3.4, Leading zero omitted, Abs format*
%FSLAX34Y34*%
G01*
G70*
G90*
G04 APERTURE LIST*
%ADD10C,0.006*%
%ADD11R,0.06X0.06*%
%ADD12C,0.06*%
%ADD13C,0.045*%
%ADD14R,0.0669291X0.0669291*%
%ADD15C,0.0669291*%
%ADD16C,0.0649606*%
%ADD17R,0.0649606X0.0649606*%
%ADD18R,0.0570866X0.0570866*%
%ADD19C,0.0570866*%
%ADD20R,0.0688976X0.0688976*%
%ADD21C,0.0688976*%
%ADD22C,0.0492126*%
%ADD23C,0.15748*%
%ADD24C,0.0354331*%
%ADD25R,0.0629921X0.0629921*%
%ADD26C,0.0374016*%
%ADD27C,0.0629921*%
%ADD28C,0.074*%
%ADD29C,0.08*%
%ADD30R,0.08X0.08*%
G04 APERTURE END LIST*
G54D10*
G54D11*
X61000Y-32500D03*
G54D12*
X61000Y-31500D03*
G54D13*
X64000Y-46000D03*
X71500Y-57500D03*
X62000Y-46000D03*
X79000Y-43000D03*
X75000Y-35000D03*
X52000Y-46000D03*
X46000Y-53000D03*
X64000Y-39000D03*
X63000Y-39000D03*
X48500Y-39000D03*
X51500Y-39000D03*
X45500Y-39000D03*
X45500Y-41000D03*
X60000Y-46000D03*
X61000Y-46000D03*
G54D14*
X42000Y-46000D03*
G54D15*
X42000Y-45000D03*
X42000Y-44000D03*
X42000Y-43000D03*
X42000Y-42000D03*
X41000Y-42000D03*
X41000Y-43000D03*
X41000Y-44000D03*
X41000Y-45000D03*
X41000Y-46000D03*
G54D16*
X64000Y-41000D03*
X63000Y-41000D03*
X62000Y-41000D03*
X61000Y-41000D03*
X60000Y-41000D03*
X59000Y-41000D03*
X58000Y-41000D03*
X57000Y-41000D03*
X56000Y-41000D03*
X55000Y-41000D03*
X54000Y-41000D03*
X53000Y-41000D03*
X52000Y-41000D03*
G54D17*
X65000Y-41000D03*
G54D16*
X52000Y-44000D03*
X53000Y-44000D03*
X54000Y-44000D03*
X55000Y-44000D03*
X56000Y-44000D03*
X57000Y-44000D03*
X58000Y-44000D03*
X59000Y-44000D03*
X60000Y-44000D03*
X61000Y-44000D03*
X62000Y-44000D03*
X63000Y-44000D03*
X64000Y-44000D03*
X65000Y-44000D03*
G54D18*
X49993Y-57000D03*
G54D19*
X49206Y-57000D03*
G54D20*
X64000Y-22500D03*
G54D21*
X65000Y-22500D03*
X66000Y-22500D03*
X67000Y-22500D03*
G54D22*
X66000Y-21650D03*
G54D23*
X78500Y-57000D03*
X78500Y-22000D03*
X41000Y-57000D03*
X41000Y-22000D03*
G54D24*
X79165Y-51766D03*
X79165Y-50034D03*
X77500Y-40838D03*
X77500Y-38161D03*
G54D25*
X47500Y-22493D03*
G54D26*
X46909Y-21903D03*
G54D27*
X48090Y-21706D03*
G54D25*
X52500Y-22493D03*
G54D26*
X51909Y-21903D03*
G54D27*
X53090Y-21706D03*
G54D25*
X57500Y-22493D03*
G54D26*
X56909Y-21903D03*
G54D27*
X58090Y-21706D03*
G54D25*
X41493Y-27000D03*
G54D26*
X40903Y-27590D03*
G54D27*
X40706Y-26409D03*
G54D25*
X61400Y-56406D03*
G54D26*
X61990Y-56996D03*
G54D27*
X60809Y-57193D03*
X60214Y-56406D03*
G54D28*
X47890Y-42520D03*
X47890Y-45080D03*
X46110Y-42520D03*
X46110Y-45080D03*
G54D29*
X73427Y-22500D03*
G54D30*
X72050Y-22500D03*
M02*
