G04 (created by PCBNEW (2013-mar-13)-testing) date Mon 25 Mar 2013 11:40:00 PM EDT*
%MOIN*%
G04 Gerber Fmt 3.4, Leading zero omitted, Abs format*
%FSLAX34Y34*%
G01*
G70*
G90*
G04 APERTURE LIST*
%ADD10C,0.006*%
%ADD11R,0.06X0.06*%
%ADD12C,0.06*%
%ADD13C,0.045*%
%ADD14R,0.0669291X0.0669291*%
%ADD15C,0.0669291*%
%ADD16C,0.0649606*%
%ADD17R,0.0649606X0.0649606*%
%ADD18R,0.0570866X0.0570866*%
%ADD19C,0.0570866*%
%ADD20R,0.0688976X0.0688976*%
%ADD21C,0.0688976*%
%ADD22C,0.0492126*%
%ADD23C,0.15748*%
%ADD24C,0.0354331*%
%ADD25R,0.0629921X0.0629921*%
%ADD26C,0.0374016*%
%ADD27C,0.0629921*%
%ADD28C,0.074*%
%ADD29C,0.08*%
%ADD30R,0.08X0.08*%
%ADD31C,0.035*%
%ADD32C,0.07*%
%ADD33C,0.01*%
%ADD34C,0.015*%
%ADD35C,0.06*%
G04 APERTURE END LIST*
G54D10*
G54D11*
X61000Y-32500D03*
G54D12*
X61000Y-31500D03*
G54D13*
X64000Y-46000D03*
X71500Y-57500D03*
X62000Y-46000D03*
X79000Y-43000D03*
X75000Y-35000D03*
X52000Y-46000D03*
X46000Y-53000D03*
X64000Y-39000D03*
X63000Y-39000D03*
X48500Y-39000D03*
X51500Y-39000D03*
X45500Y-39000D03*
X45500Y-41000D03*
X60000Y-46000D03*
X61000Y-46000D03*
G54D14*
X42000Y-46000D03*
G54D15*
X42000Y-45000D03*
X42000Y-44000D03*
X42000Y-43000D03*
X42000Y-42000D03*
X41000Y-42000D03*
X41000Y-43000D03*
X41000Y-44000D03*
X41000Y-45000D03*
X41000Y-46000D03*
G54D16*
X64000Y-41000D03*
X63000Y-41000D03*
X62000Y-41000D03*
X61000Y-41000D03*
X60000Y-41000D03*
X59000Y-41000D03*
X58000Y-41000D03*
X57000Y-41000D03*
X56000Y-41000D03*
X55000Y-41000D03*
X54000Y-41000D03*
X53000Y-41000D03*
X52000Y-41000D03*
G54D17*
X65000Y-41000D03*
G54D16*
X52000Y-44000D03*
X53000Y-44000D03*
X54000Y-44000D03*
X55000Y-44000D03*
X56000Y-44000D03*
X57000Y-44000D03*
X58000Y-44000D03*
X59000Y-44000D03*
X60000Y-44000D03*
X61000Y-44000D03*
X62000Y-44000D03*
X63000Y-44000D03*
X64000Y-44000D03*
X65000Y-44000D03*
G54D18*
X49993Y-57000D03*
G54D19*
X49206Y-57000D03*
G54D20*
X64000Y-22500D03*
G54D21*
X65000Y-22500D03*
X66000Y-22500D03*
X67000Y-22500D03*
G54D22*
X66000Y-21650D03*
G54D23*
X78500Y-57000D03*
X78500Y-22000D03*
X41000Y-57000D03*
X41000Y-22000D03*
G54D24*
X79165Y-51766D03*
X79165Y-50034D03*
X77500Y-40838D03*
X77500Y-38161D03*
G54D25*
X47500Y-22493D03*
G54D26*
X46909Y-21903D03*
G54D27*
X48090Y-21706D03*
G54D25*
X52500Y-22493D03*
G54D26*
X51909Y-21903D03*
G54D27*
X53090Y-21706D03*
G54D25*
X57500Y-22493D03*
G54D26*
X56909Y-21903D03*
G54D27*
X58090Y-21706D03*
G54D25*
X41493Y-27000D03*
G54D26*
X40903Y-27590D03*
G54D27*
X40706Y-26409D03*
G54D25*
X61400Y-56406D03*
G54D26*
X61990Y-56996D03*
G54D27*
X60809Y-57193D03*
X60214Y-56406D03*
G54D28*
X47890Y-42520D03*
X47890Y-45080D03*
X46110Y-42520D03*
X46110Y-45080D03*
G54D29*
X73427Y-22500D03*
G54D30*
X72050Y-22500D03*
G54D31*
X71800Y-37800D03*
X43900Y-42000D03*
X49800Y-42600D03*
X72200Y-43900D03*
X55600Y-50600D03*
X41600Y-53400D03*
G54D32*
X66050Y-26250D03*
X77500Y-28800D03*
G54D31*
X66000Y-56300D03*
X73200Y-53750D03*
X76300Y-50250D03*
X73500Y-43900D03*
X69500Y-42600D03*
X73000Y-35100D03*
X68000Y-35100D03*
X65500Y-33550D03*
X48500Y-29100D03*
X63000Y-33550D03*
X42500Y-29100D03*
X45500Y-29100D03*
X51500Y-29150D03*
X56500Y-32200D03*
G54D32*
X65700Y-27250D03*
G54D31*
X67000Y-28700D03*
X50350Y-28000D03*
X44850Y-28000D03*
G54D33*
X60000Y-46000D02*
X60800Y-45200D01*
X71800Y-42000D02*
X71800Y-37800D01*
X68600Y-45200D02*
X71800Y-42000D01*
X60800Y-45200D02*
X68600Y-45200D01*
X55000Y-44000D02*
X54300Y-43300D01*
X45200Y-43300D02*
X43900Y-42000D01*
X54300Y-43300D02*
X45200Y-43300D01*
X42000Y-46000D02*
X48900Y-46000D01*
X54000Y-44700D02*
X54000Y-44000D01*
X53500Y-45200D02*
X54000Y-44700D01*
X49700Y-45200D02*
X53500Y-45200D01*
X48900Y-46000D02*
X49700Y-45200D01*
X55000Y-43000D02*
X56000Y-44000D01*
X50200Y-43000D02*
X55000Y-43000D01*
X49800Y-42600D02*
X50200Y-43000D01*
G54D34*
X71500Y-57500D02*
X71500Y-54200D01*
X72200Y-53500D02*
X72200Y-43900D01*
X71500Y-54200D02*
X72200Y-53500D01*
G54D33*
X47890Y-42520D02*
X49080Y-42520D01*
X65000Y-41600D02*
X65000Y-41000D01*
X64800Y-41800D02*
X65000Y-41600D01*
X49800Y-41800D02*
X64800Y-41800D01*
X49080Y-42520D02*
X49800Y-41800D01*
G54D35*
X65000Y-26550D02*
X65000Y-22500D01*
X65700Y-27250D02*
X65000Y-26550D01*
G54D33*
X67000Y-28700D02*
X67000Y-22500D01*
G54D34*
X58090Y-21706D02*
X58090Y-21640D01*
X53500Y-28000D02*
X50350Y-28000D01*
X54350Y-27150D02*
X53500Y-28000D01*
X54350Y-22650D02*
X54350Y-27150D01*
X55850Y-21150D02*
X54350Y-22650D01*
X57600Y-21150D02*
X55850Y-21150D01*
X58090Y-21640D02*
X57600Y-21150D01*
X48090Y-21706D02*
X48090Y-21690D01*
X44850Y-21950D02*
X44850Y-28000D01*
X45700Y-21100D02*
X44850Y-21950D01*
X47500Y-21100D02*
X45700Y-21100D01*
X48090Y-21690D02*
X47500Y-21100D01*
G54D10*
G36*
X79950Y-53950D02*
X79592Y-53950D01*
X79592Y-51681D01*
X79592Y-49949D01*
X79527Y-49792D01*
X79475Y-49739D01*
X79475Y-42905D01*
X79402Y-42731D01*
X79269Y-42597D01*
X79094Y-42525D01*
X78905Y-42524D01*
X78731Y-42597D01*
X78597Y-42730D01*
X78525Y-42905D01*
X78524Y-43094D01*
X78597Y-43268D01*
X78730Y-43402D01*
X78905Y-43474D01*
X79094Y-43475D01*
X79268Y-43402D01*
X79402Y-43269D01*
X79474Y-43094D01*
X79475Y-42905D01*
X79475Y-49739D01*
X79407Y-49672D01*
X79250Y-49606D01*
X79080Y-49606D01*
X78923Y-49671D01*
X78803Y-49791D01*
X78737Y-49948D01*
X78737Y-50118D01*
X78802Y-50275D01*
X78922Y-50395D01*
X79079Y-50461D01*
X79249Y-50461D01*
X79406Y-50396D01*
X79526Y-50276D01*
X79592Y-50119D01*
X79592Y-49949D01*
X79592Y-51681D01*
X79527Y-51524D01*
X79407Y-51404D01*
X79250Y-51338D01*
X79080Y-51338D01*
X78923Y-51403D01*
X78803Y-51523D01*
X78737Y-51680D01*
X78737Y-51850D01*
X78802Y-52007D01*
X78922Y-52127D01*
X79079Y-52193D01*
X79249Y-52193D01*
X79406Y-52128D01*
X79526Y-52008D01*
X79592Y-51851D01*
X79592Y-51681D01*
X79592Y-53950D01*
X77927Y-53950D01*
X77927Y-40753D01*
X77927Y-38076D01*
X77862Y-37919D01*
X77742Y-37799D01*
X77585Y-37734D01*
X77415Y-37734D01*
X77258Y-37799D01*
X77138Y-37919D01*
X77072Y-38076D01*
X77072Y-38246D01*
X77137Y-38403D01*
X77257Y-38523D01*
X77414Y-38588D01*
X77584Y-38588D01*
X77741Y-38523D01*
X77861Y-38403D01*
X77927Y-38246D01*
X77927Y-38076D01*
X77927Y-40753D01*
X77862Y-40596D01*
X77742Y-40476D01*
X77585Y-40411D01*
X77415Y-40411D01*
X77258Y-40476D01*
X77138Y-40596D01*
X77072Y-40753D01*
X77072Y-40923D01*
X77137Y-41080D01*
X77257Y-41200D01*
X77414Y-41265D01*
X77584Y-41265D01*
X77741Y-41200D01*
X77861Y-41080D01*
X77927Y-40923D01*
X77927Y-40753D01*
X77927Y-53950D01*
X75475Y-53950D01*
X75475Y-34905D01*
X75402Y-34731D01*
X75269Y-34597D01*
X75094Y-34525D01*
X74905Y-34524D01*
X74731Y-34597D01*
X74597Y-34730D01*
X74525Y-34905D01*
X74524Y-35094D01*
X74597Y-35268D01*
X74730Y-35402D01*
X74905Y-35474D01*
X75094Y-35475D01*
X75268Y-35402D01*
X75402Y-35269D01*
X75474Y-35094D01*
X75475Y-34905D01*
X75475Y-53950D01*
X75450Y-53950D01*
X75450Y-58450D01*
X74077Y-58450D01*
X74077Y-22371D01*
X73978Y-22132D01*
X73795Y-21949D01*
X73556Y-21850D01*
X73298Y-21849D01*
X73059Y-21948D01*
X72876Y-22131D01*
X72777Y-22370D01*
X72776Y-22628D01*
X72875Y-22867D01*
X73058Y-23050D01*
X73297Y-23149D01*
X73555Y-23150D01*
X73794Y-23051D01*
X73977Y-22868D01*
X74076Y-22629D01*
X74077Y-22371D01*
X74077Y-58450D01*
X72700Y-58450D01*
X72700Y-22850D01*
X72700Y-22050D01*
X72662Y-21958D01*
X72591Y-21888D01*
X72499Y-21850D01*
X72400Y-21849D01*
X71600Y-21849D01*
X71508Y-21887D01*
X71438Y-21958D01*
X71400Y-22050D01*
X71399Y-22149D01*
X71399Y-22949D01*
X71437Y-23041D01*
X71508Y-23111D01*
X71600Y-23149D01*
X71699Y-23150D01*
X72499Y-23150D01*
X72591Y-23112D01*
X72661Y-23041D01*
X72699Y-22949D01*
X72700Y-22850D01*
X72700Y-58450D01*
X72625Y-58450D01*
X72625Y-43815D01*
X72560Y-43659D01*
X72441Y-43539D01*
X72284Y-43475D01*
X72225Y-43475D01*
X72225Y-37715D01*
X72160Y-37559D01*
X72041Y-37439D01*
X71884Y-37375D01*
X71715Y-37374D01*
X71559Y-37439D01*
X71439Y-37558D01*
X71375Y-37715D01*
X71374Y-37884D01*
X71439Y-38040D01*
X71500Y-38101D01*
X71500Y-41875D01*
X68475Y-44900D01*
X67594Y-44900D01*
X67594Y-22382D01*
X67504Y-22163D01*
X67337Y-21996D01*
X67118Y-21905D01*
X66882Y-21905D01*
X66663Y-21995D01*
X66499Y-22159D01*
X66346Y-22005D01*
X66420Y-21931D01*
X66495Y-21749D01*
X66496Y-21551D01*
X66420Y-21369D01*
X66281Y-21229D01*
X66099Y-21154D01*
X65901Y-21153D01*
X65719Y-21229D01*
X65579Y-21368D01*
X65504Y-21550D01*
X65503Y-21748D01*
X65579Y-21930D01*
X65653Y-22005D01*
X65499Y-22159D01*
X65337Y-21996D01*
X65118Y-21905D01*
X64882Y-21905D01*
X64663Y-21995D01*
X64582Y-22076D01*
X64556Y-22013D01*
X64485Y-21943D01*
X64393Y-21905D01*
X64112Y-21905D01*
X64050Y-21968D01*
X64050Y-22450D01*
X64057Y-22450D01*
X64057Y-22550D01*
X64050Y-22550D01*
X64050Y-23031D01*
X64112Y-23094D01*
X64393Y-23094D01*
X64450Y-23071D01*
X64450Y-26550D01*
X64491Y-26760D01*
X64611Y-26938D01*
X65141Y-27469D01*
X65191Y-27589D01*
X65359Y-27758D01*
X65580Y-27849D01*
X65818Y-27850D01*
X66039Y-27758D01*
X66208Y-27590D01*
X66299Y-27369D01*
X66300Y-27131D01*
X66208Y-26910D01*
X66040Y-26741D01*
X65919Y-26691D01*
X65550Y-26322D01*
X65550Y-22890D01*
X65662Y-23003D01*
X65881Y-23094D01*
X66117Y-23094D01*
X66336Y-23004D01*
X66500Y-22840D01*
X66662Y-23003D01*
X66700Y-23019D01*
X66700Y-28398D01*
X66639Y-28458D01*
X66575Y-28615D01*
X66574Y-28784D01*
X66639Y-28940D01*
X66758Y-29060D01*
X66915Y-29124D01*
X67084Y-29125D01*
X67240Y-29060D01*
X67360Y-28941D01*
X67424Y-28784D01*
X67425Y-28615D01*
X67360Y-28459D01*
X67300Y-28398D01*
X67300Y-23019D01*
X67336Y-23004D01*
X67503Y-22837D01*
X67594Y-22618D01*
X67594Y-22382D01*
X67594Y-44900D01*
X65574Y-44900D01*
X65574Y-43886D01*
X65574Y-43886D01*
X65574Y-41275D01*
X65574Y-40625D01*
X65536Y-40533D01*
X65466Y-40463D01*
X65374Y-40425D01*
X65275Y-40425D01*
X64625Y-40425D01*
X64533Y-40463D01*
X64475Y-40521D01*
X64475Y-38905D01*
X64402Y-38731D01*
X64269Y-38597D01*
X64094Y-38525D01*
X63950Y-38524D01*
X63950Y-23031D01*
X63950Y-22550D01*
X63950Y-22450D01*
X63950Y-21968D01*
X63887Y-21905D01*
X63606Y-21905D01*
X63514Y-21943D01*
X63443Y-22013D01*
X63405Y-22105D01*
X63405Y-22205D01*
X63405Y-22387D01*
X63468Y-22450D01*
X63950Y-22450D01*
X63950Y-22550D01*
X63468Y-22550D01*
X63405Y-22612D01*
X63405Y-22794D01*
X63405Y-22894D01*
X63443Y-22986D01*
X63514Y-23056D01*
X63606Y-23094D01*
X63887Y-23094D01*
X63950Y-23031D01*
X63950Y-38524D01*
X63905Y-38524D01*
X63731Y-38597D01*
X63597Y-38730D01*
X63525Y-38905D01*
X63524Y-39094D01*
X63597Y-39268D01*
X63730Y-39402D01*
X63905Y-39474D01*
X64094Y-39475D01*
X64268Y-39402D01*
X64402Y-39269D01*
X64474Y-39094D01*
X64475Y-38905D01*
X64475Y-40521D01*
X64463Y-40533D01*
X64429Y-40616D01*
X64326Y-40512D01*
X64114Y-40425D01*
X63886Y-40425D01*
X63674Y-40512D01*
X63512Y-40673D01*
X63500Y-40705D01*
X63487Y-40674D01*
X63475Y-40662D01*
X63475Y-38905D01*
X63402Y-38731D01*
X63269Y-38597D01*
X63094Y-38525D01*
X62905Y-38524D01*
X62731Y-38597D01*
X62597Y-38730D01*
X62525Y-38905D01*
X62524Y-39094D01*
X62597Y-39268D01*
X62730Y-39402D01*
X62905Y-39474D01*
X63094Y-39475D01*
X63268Y-39402D01*
X63402Y-39269D01*
X63474Y-39094D01*
X63475Y-38905D01*
X63475Y-40662D01*
X63326Y-40512D01*
X63114Y-40425D01*
X62886Y-40425D01*
X62674Y-40512D01*
X62512Y-40673D01*
X62500Y-40705D01*
X62487Y-40674D01*
X62326Y-40512D01*
X62114Y-40425D01*
X61886Y-40425D01*
X61674Y-40512D01*
X61620Y-40567D01*
X61620Y-32377D01*
X61525Y-32149D01*
X61376Y-31999D01*
X61525Y-31851D01*
X61619Y-31623D01*
X61620Y-31377D01*
X61525Y-31149D01*
X61351Y-30974D01*
X61123Y-30880D01*
X60877Y-30879D01*
X60649Y-30974D01*
X60474Y-31148D01*
X60380Y-31376D01*
X60379Y-31622D01*
X60474Y-31850D01*
X60623Y-32000D01*
X60474Y-32148D01*
X60380Y-32376D01*
X60379Y-32622D01*
X60474Y-32850D01*
X60648Y-33025D01*
X60876Y-33119D01*
X61122Y-33120D01*
X61350Y-33025D01*
X61525Y-32851D01*
X61619Y-32623D01*
X61620Y-32377D01*
X61620Y-40567D01*
X61512Y-40673D01*
X61500Y-40705D01*
X61487Y-40674D01*
X61326Y-40512D01*
X61114Y-40425D01*
X60886Y-40425D01*
X60674Y-40512D01*
X60512Y-40673D01*
X60500Y-40705D01*
X60487Y-40674D01*
X60326Y-40512D01*
X60114Y-40425D01*
X59886Y-40425D01*
X59674Y-40512D01*
X59512Y-40673D01*
X59500Y-40705D01*
X59487Y-40674D01*
X59326Y-40512D01*
X59114Y-40425D01*
X58886Y-40425D01*
X58674Y-40512D01*
X58655Y-40531D01*
X58655Y-21594D01*
X58569Y-21386D01*
X58410Y-21227D01*
X58203Y-21141D01*
X58050Y-21141D01*
X57829Y-20920D01*
X57724Y-20849D01*
X57600Y-20825D01*
X55850Y-20825D01*
X55725Y-20849D01*
X55620Y-20920D01*
X55620Y-20920D01*
X54120Y-22420D01*
X54049Y-22525D01*
X54025Y-22650D01*
X54025Y-27015D01*
X53655Y-27384D01*
X53655Y-21594D01*
X53569Y-21386D01*
X53410Y-21227D01*
X53203Y-21141D01*
X52978Y-21141D01*
X52770Y-21227D01*
X52611Y-21385D01*
X52525Y-21593D01*
X52525Y-21818D01*
X52571Y-21928D01*
X52346Y-21928D01*
X52346Y-21816D01*
X52280Y-21655D01*
X52157Y-21532D01*
X51996Y-21466D01*
X51822Y-21466D01*
X51662Y-21532D01*
X51539Y-21655D01*
X51472Y-21815D01*
X51472Y-21989D01*
X51538Y-22150D01*
X51661Y-22273D01*
X51822Y-22340D01*
X51934Y-22340D01*
X51934Y-22858D01*
X51972Y-22950D01*
X52043Y-23020D01*
X52135Y-23058D01*
X52234Y-23058D01*
X52864Y-23058D01*
X52956Y-23020D01*
X53026Y-22950D01*
X53064Y-22858D01*
X53065Y-22759D01*
X53065Y-22271D01*
X53202Y-22271D01*
X53410Y-22185D01*
X53569Y-22026D01*
X53655Y-21819D01*
X53655Y-21594D01*
X53655Y-27384D01*
X53365Y-27675D01*
X50626Y-27675D01*
X50591Y-27639D01*
X50434Y-27575D01*
X50265Y-27574D01*
X50109Y-27639D01*
X49989Y-27758D01*
X49925Y-27915D01*
X49924Y-28084D01*
X49989Y-28240D01*
X50108Y-28360D01*
X50265Y-28424D01*
X50434Y-28425D01*
X50590Y-28360D01*
X50625Y-28325D01*
X53500Y-28325D01*
X53624Y-28300D01*
X53624Y-28300D01*
X53729Y-28229D01*
X54579Y-27379D01*
X54650Y-27274D01*
X54650Y-27274D01*
X54675Y-27150D01*
X54675Y-22784D01*
X55984Y-21475D01*
X56801Y-21475D01*
X56662Y-21532D01*
X56539Y-21655D01*
X56472Y-21815D01*
X56472Y-21989D01*
X56538Y-22150D01*
X56661Y-22273D01*
X56822Y-22340D01*
X56934Y-22340D01*
X56934Y-22858D01*
X56972Y-22950D01*
X57043Y-23020D01*
X57135Y-23058D01*
X57234Y-23058D01*
X57864Y-23058D01*
X57956Y-23020D01*
X58026Y-22950D01*
X58064Y-22858D01*
X58065Y-22759D01*
X58065Y-22271D01*
X58202Y-22271D01*
X58410Y-22185D01*
X58569Y-22026D01*
X58655Y-21819D01*
X58655Y-21594D01*
X58655Y-40531D01*
X58512Y-40673D01*
X58502Y-40699D01*
X58501Y-40697D01*
X58403Y-40666D01*
X58333Y-40737D01*
X58333Y-40596D01*
X58302Y-40498D01*
X58087Y-40420D01*
X57859Y-40431D01*
X57697Y-40498D01*
X57666Y-40596D01*
X58000Y-40929D01*
X58333Y-40596D01*
X58333Y-40737D01*
X58070Y-41000D01*
X58403Y-41333D01*
X58501Y-41302D01*
X58502Y-41301D01*
X58512Y-41325D01*
X58673Y-41487D01*
X58705Y-41500D01*
X58303Y-41500D01*
X58333Y-41403D01*
X58000Y-41070D01*
X57666Y-41403D01*
X57696Y-41500D01*
X57295Y-41500D01*
X57325Y-41487D01*
X57487Y-41326D01*
X57497Y-41300D01*
X57498Y-41302D01*
X57596Y-41333D01*
X57929Y-41000D01*
X57596Y-40666D01*
X57498Y-40697D01*
X57497Y-40698D01*
X57487Y-40674D01*
X57326Y-40512D01*
X57114Y-40425D01*
X56886Y-40425D01*
X56674Y-40512D01*
X56512Y-40673D01*
X56500Y-40705D01*
X56487Y-40674D01*
X56326Y-40512D01*
X56114Y-40425D01*
X55886Y-40425D01*
X55674Y-40512D01*
X55512Y-40673D01*
X55500Y-40705D01*
X55487Y-40674D01*
X55326Y-40512D01*
X55114Y-40425D01*
X54886Y-40425D01*
X54674Y-40512D01*
X54512Y-40673D01*
X54500Y-40705D01*
X54487Y-40674D01*
X54326Y-40512D01*
X54114Y-40425D01*
X53886Y-40425D01*
X53674Y-40512D01*
X53512Y-40673D01*
X53500Y-40705D01*
X53487Y-40674D01*
X53326Y-40512D01*
X53114Y-40425D01*
X52886Y-40425D01*
X52674Y-40512D01*
X52512Y-40673D01*
X52500Y-40705D01*
X52487Y-40674D01*
X52326Y-40512D01*
X52114Y-40425D01*
X51975Y-40425D01*
X51975Y-38905D01*
X51902Y-38731D01*
X51769Y-38597D01*
X51594Y-38525D01*
X51405Y-38524D01*
X51231Y-38597D01*
X51097Y-38730D01*
X51025Y-38905D01*
X51024Y-39094D01*
X51097Y-39268D01*
X51230Y-39402D01*
X51405Y-39474D01*
X51594Y-39475D01*
X51768Y-39402D01*
X51902Y-39269D01*
X51974Y-39094D01*
X51975Y-38905D01*
X51975Y-40425D01*
X51886Y-40425D01*
X51674Y-40512D01*
X51512Y-40673D01*
X51425Y-40885D01*
X51425Y-41113D01*
X51512Y-41325D01*
X51673Y-41487D01*
X51705Y-41500D01*
X49800Y-41500D01*
X49685Y-41522D01*
X49587Y-41587D01*
X48975Y-42200D01*
X48975Y-38905D01*
X48902Y-38731D01*
X48769Y-38597D01*
X48655Y-38550D01*
X48655Y-21594D01*
X48569Y-21386D01*
X48410Y-21227D01*
X48203Y-21141D01*
X48000Y-21141D01*
X47729Y-20870D01*
X47624Y-20799D01*
X47500Y-20775D01*
X45700Y-20775D01*
X45575Y-20799D01*
X45470Y-20870D01*
X44620Y-21720D01*
X44549Y-21825D01*
X44525Y-21950D01*
X44525Y-27723D01*
X44489Y-27758D01*
X44425Y-27915D01*
X44424Y-28084D01*
X44489Y-28240D01*
X44608Y-28360D01*
X44765Y-28424D01*
X44934Y-28425D01*
X45090Y-28360D01*
X45210Y-28241D01*
X45274Y-28084D01*
X45275Y-27915D01*
X45210Y-27759D01*
X45175Y-27724D01*
X45175Y-22084D01*
X45834Y-21425D01*
X47365Y-21425D01*
X47528Y-21587D01*
X47525Y-21593D01*
X47525Y-21818D01*
X47571Y-21928D01*
X47346Y-21928D01*
X47346Y-21816D01*
X47280Y-21655D01*
X47157Y-21532D01*
X46996Y-21466D01*
X46822Y-21466D01*
X46662Y-21532D01*
X46539Y-21655D01*
X46472Y-21815D01*
X46472Y-21989D01*
X46538Y-22150D01*
X46661Y-22273D01*
X46822Y-22340D01*
X46934Y-22340D01*
X46934Y-22858D01*
X46972Y-22950D01*
X47043Y-23020D01*
X47135Y-23058D01*
X47234Y-23058D01*
X47864Y-23058D01*
X47956Y-23020D01*
X48026Y-22950D01*
X48064Y-22858D01*
X48065Y-22759D01*
X48065Y-22271D01*
X48202Y-22271D01*
X48410Y-22185D01*
X48569Y-22026D01*
X48655Y-21819D01*
X48655Y-21594D01*
X48655Y-38550D01*
X48594Y-38525D01*
X48405Y-38524D01*
X48231Y-38597D01*
X48097Y-38730D01*
X48025Y-38905D01*
X48024Y-39094D01*
X48097Y-39268D01*
X48230Y-39402D01*
X48405Y-39474D01*
X48594Y-39475D01*
X48768Y-39402D01*
X48902Y-39269D01*
X48974Y-39094D01*
X48975Y-38905D01*
X48975Y-42200D01*
X48955Y-42220D01*
X48436Y-42220D01*
X48415Y-42169D01*
X48241Y-41994D01*
X48013Y-41900D01*
X47767Y-41899D01*
X47539Y-41994D01*
X47364Y-42168D01*
X47270Y-42396D01*
X47269Y-42642D01*
X47364Y-42870D01*
X47493Y-43000D01*
X46734Y-43000D01*
X46734Y-42618D01*
X46724Y-42372D01*
X46649Y-42190D01*
X46546Y-42154D01*
X46475Y-42224D01*
X46475Y-42083D01*
X46439Y-41980D01*
X46208Y-41895D01*
X45975Y-41904D01*
X45975Y-40905D01*
X45975Y-38905D01*
X45902Y-38731D01*
X45769Y-38597D01*
X45594Y-38525D01*
X45405Y-38524D01*
X45231Y-38597D01*
X45097Y-38730D01*
X45025Y-38905D01*
X45024Y-39094D01*
X45097Y-39268D01*
X45230Y-39402D01*
X45405Y-39474D01*
X45594Y-39475D01*
X45768Y-39402D01*
X45902Y-39269D01*
X45974Y-39094D01*
X45975Y-38905D01*
X45975Y-40905D01*
X45902Y-40731D01*
X45769Y-40597D01*
X45594Y-40525D01*
X45405Y-40524D01*
X45231Y-40597D01*
X45097Y-40730D01*
X45025Y-40905D01*
X45024Y-41094D01*
X45097Y-41268D01*
X45230Y-41402D01*
X45405Y-41474D01*
X45594Y-41475D01*
X45768Y-41402D01*
X45902Y-41269D01*
X45974Y-41094D01*
X45975Y-40905D01*
X45975Y-41904D01*
X45962Y-41905D01*
X45780Y-41980D01*
X45744Y-42083D01*
X46110Y-42449D01*
X46475Y-42083D01*
X46475Y-42224D01*
X46180Y-42520D01*
X46546Y-42885D01*
X46649Y-42849D01*
X46734Y-42618D01*
X46734Y-43000D01*
X46460Y-43000D01*
X46475Y-42956D01*
X46110Y-42590D01*
X46039Y-42661D01*
X46039Y-42520D01*
X45673Y-42154D01*
X45570Y-42190D01*
X45485Y-42421D01*
X45495Y-42667D01*
X45570Y-42849D01*
X45673Y-42885D01*
X46039Y-42520D01*
X46039Y-42661D01*
X45744Y-42956D01*
X45759Y-43000D01*
X45324Y-43000D01*
X44324Y-42000D01*
X44325Y-41915D01*
X44260Y-41759D01*
X44141Y-41639D01*
X43984Y-41575D01*
X43815Y-41574D01*
X43659Y-41639D01*
X43539Y-41758D01*
X43475Y-41915D01*
X43474Y-42084D01*
X43539Y-42240D01*
X43658Y-42360D01*
X43815Y-42424D01*
X43900Y-42425D01*
X44987Y-43512D01*
X45085Y-43577D01*
X45200Y-43600D01*
X51587Y-43600D01*
X51512Y-43673D01*
X51425Y-43885D01*
X51425Y-44113D01*
X51512Y-44325D01*
X51673Y-44487D01*
X51885Y-44574D01*
X52113Y-44574D01*
X52325Y-44487D01*
X52487Y-44326D01*
X52499Y-44294D01*
X52512Y-44325D01*
X52673Y-44487D01*
X52885Y-44574D01*
X53113Y-44574D01*
X53325Y-44487D01*
X53487Y-44326D01*
X53499Y-44294D01*
X53512Y-44325D01*
X53673Y-44487D01*
X53700Y-44497D01*
X53700Y-44575D01*
X53375Y-44900D01*
X49700Y-44900D01*
X49585Y-44922D01*
X49487Y-44987D01*
X48775Y-45700D01*
X48013Y-45700D01*
X48240Y-45605D01*
X48415Y-45431D01*
X48509Y-45203D01*
X48510Y-44957D01*
X48415Y-44729D01*
X48241Y-44554D01*
X48013Y-44460D01*
X47767Y-44459D01*
X47539Y-44554D01*
X47364Y-44728D01*
X47270Y-44956D01*
X47269Y-45202D01*
X47364Y-45430D01*
X47538Y-45605D01*
X47766Y-45699D01*
X47889Y-45700D01*
X46734Y-45700D01*
X46734Y-45178D01*
X46724Y-44932D01*
X46649Y-44750D01*
X46546Y-44714D01*
X46475Y-44784D01*
X46475Y-44643D01*
X46439Y-44540D01*
X46208Y-44455D01*
X45962Y-44465D01*
X45780Y-44540D01*
X45744Y-44643D01*
X46110Y-45009D01*
X46475Y-44643D01*
X46475Y-44784D01*
X46180Y-45080D01*
X46546Y-45445D01*
X46649Y-45409D01*
X46734Y-45178D01*
X46734Y-45700D01*
X46122Y-45700D01*
X46257Y-45694D01*
X46439Y-45619D01*
X46475Y-45516D01*
X46110Y-45150D01*
X46039Y-45221D01*
X46039Y-45080D01*
X45673Y-44714D01*
X45570Y-44750D01*
X45485Y-44981D01*
X45495Y-45227D01*
X45570Y-45409D01*
X45673Y-45445D01*
X46039Y-45080D01*
X46039Y-45221D01*
X45744Y-45516D01*
X45780Y-45619D01*
X45999Y-45700D01*
X42584Y-45700D01*
X42584Y-45615D01*
X42546Y-45523D01*
X42476Y-45453D01*
X42403Y-45423D01*
X42495Y-45331D01*
X42584Y-45116D01*
X42584Y-44884D01*
X42495Y-44669D01*
X42331Y-44504D01*
X42320Y-44500D01*
X42330Y-44495D01*
X42495Y-44331D01*
X42584Y-44116D01*
X42584Y-43884D01*
X42495Y-43669D01*
X42331Y-43504D01*
X42320Y-43500D01*
X42330Y-43495D01*
X42495Y-43331D01*
X42584Y-43116D01*
X42584Y-42884D01*
X42495Y-42669D01*
X42331Y-42504D01*
X42320Y-42500D01*
X42330Y-42495D01*
X42495Y-42331D01*
X42584Y-42116D01*
X42584Y-41884D01*
X42495Y-41669D01*
X42331Y-41504D01*
X42116Y-41415D01*
X42058Y-41415D01*
X42058Y-27265D01*
X42058Y-26635D01*
X42020Y-26543D01*
X41950Y-26473D01*
X41858Y-26435D01*
X41759Y-26434D01*
X41271Y-26434D01*
X41271Y-26297D01*
X41185Y-26089D01*
X41026Y-25930D01*
X40819Y-25844D01*
X40594Y-25844D01*
X40386Y-25930D01*
X40227Y-26089D01*
X40141Y-26296D01*
X40141Y-26521D01*
X40227Y-26729D01*
X40385Y-26888D01*
X40593Y-26974D01*
X40818Y-26974D01*
X40928Y-26928D01*
X40928Y-27153D01*
X40816Y-27153D01*
X40655Y-27219D01*
X40532Y-27342D01*
X40466Y-27503D01*
X40466Y-27677D01*
X40532Y-27837D01*
X40655Y-27960D01*
X40815Y-28027D01*
X40989Y-28027D01*
X41150Y-27961D01*
X41273Y-27838D01*
X41340Y-27677D01*
X41340Y-27565D01*
X41858Y-27565D01*
X41950Y-27527D01*
X42020Y-27456D01*
X42058Y-27364D01*
X42058Y-27265D01*
X42058Y-41415D01*
X41884Y-41415D01*
X41669Y-41504D01*
X41504Y-41668D01*
X41496Y-41687D01*
X41411Y-41659D01*
X41340Y-41730D01*
X41340Y-41588D01*
X41308Y-41490D01*
X41090Y-41410D01*
X40857Y-41421D01*
X40691Y-41490D01*
X40659Y-41588D01*
X41000Y-41929D01*
X41340Y-41588D01*
X41340Y-41730D01*
X41070Y-42000D01*
X41411Y-42340D01*
X41496Y-42312D01*
X41504Y-42330D01*
X41668Y-42495D01*
X41679Y-42499D01*
X41669Y-42504D01*
X41504Y-42668D01*
X41496Y-42687D01*
X41411Y-42659D01*
X41340Y-42730D01*
X41340Y-42588D01*
X41311Y-42500D01*
X41340Y-42411D01*
X41000Y-42070D01*
X40929Y-42141D01*
X40929Y-42000D01*
X40588Y-41659D01*
X40490Y-41691D01*
X40410Y-41909D01*
X40421Y-42142D01*
X40490Y-42308D01*
X40588Y-42340D01*
X40929Y-42000D01*
X40929Y-42141D01*
X40659Y-42411D01*
X40688Y-42500D01*
X40659Y-42588D01*
X41000Y-42929D01*
X41340Y-42588D01*
X41340Y-42730D01*
X41070Y-43000D01*
X41411Y-43340D01*
X41496Y-43312D01*
X41504Y-43330D01*
X41668Y-43495D01*
X41679Y-43499D01*
X41669Y-43504D01*
X41504Y-43668D01*
X41496Y-43687D01*
X41411Y-43659D01*
X41340Y-43730D01*
X41340Y-43588D01*
X41311Y-43500D01*
X41340Y-43411D01*
X41000Y-43070D01*
X40929Y-43141D01*
X40929Y-43000D01*
X40588Y-42659D01*
X40490Y-42691D01*
X40410Y-42909D01*
X40421Y-43142D01*
X40490Y-43308D01*
X40588Y-43340D01*
X40929Y-43000D01*
X40929Y-43141D01*
X40659Y-43411D01*
X40688Y-43500D01*
X40659Y-43588D01*
X41000Y-43929D01*
X41340Y-43588D01*
X41340Y-43730D01*
X41070Y-44000D01*
X41411Y-44340D01*
X41496Y-44312D01*
X41504Y-44330D01*
X41668Y-44495D01*
X41679Y-44499D01*
X41669Y-44504D01*
X41504Y-44668D01*
X41496Y-44687D01*
X41411Y-44659D01*
X41340Y-44730D01*
X41340Y-44588D01*
X41311Y-44500D01*
X41340Y-44411D01*
X41000Y-44070D01*
X40929Y-44141D01*
X40929Y-44000D01*
X40588Y-43659D01*
X40490Y-43691D01*
X40410Y-43909D01*
X40421Y-44142D01*
X40490Y-44308D01*
X40588Y-44340D01*
X40929Y-44000D01*
X40929Y-44141D01*
X40659Y-44411D01*
X40688Y-44500D01*
X40659Y-44588D01*
X41000Y-44929D01*
X41340Y-44588D01*
X41340Y-44730D01*
X41070Y-45000D01*
X41411Y-45340D01*
X41496Y-45312D01*
X41504Y-45330D01*
X41596Y-45423D01*
X41523Y-45453D01*
X41453Y-45523D01*
X41423Y-45596D01*
X41331Y-45504D01*
X41312Y-45496D01*
X41340Y-45411D01*
X41000Y-45070D01*
X40929Y-45141D01*
X40929Y-45000D01*
X40588Y-44659D01*
X40490Y-44691D01*
X40410Y-44909D01*
X40421Y-45142D01*
X40490Y-45308D01*
X40588Y-45340D01*
X40929Y-45000D01*
X40929Y-45141D01*
X40659Y-45411D01*
X40687Y-45496D01*
X40669Y-45504D01*
X40504Y-45668D01*
X40415Y-45883D01*
X40415Y-46115D01*
X40504Y-46330D01*
X40668Y-46495D01*
X40883Y-46584D01*
X41115Y-46584D01*
X41330Y-46495D01*
X41423Y-46403D01*
X41453Y-46476D01*
X41523Y-46546D01*
X41615Y-46584D01*
X41714Y-46584D01*
X42384Y-46584D01*
X42476Y-46546D01*
X42546Y-46476D01*
X42584Y-46384D01*
X42584Y-46300D01*
X48900Y-46300D01*
X48900Y-46299D01*
X49014Y-46277D01*
X49014Y-46277D01*
X49112Y-46212D01*
X49824Y-45500D01*
X53500Y-45500D01*
X53500Y-45499D01*
X53614Y-45477D01*
X53614Y-45477D01*
X53712Y-45412D01*
X54212Y-44912D01*
X54212Y-44912D01*
X54277Y-44814D01*
X54299Y-44700D01*
X54300Y-44700D01*
X54300Y-44497D01*
X54325Y-44487D01*
X54487Y-44326D01*
X54499Y-44294D01*
X54512Y-44325D01*
X54673Y-44487D01*
X54885Y-44574D01*
X55113Y-44574D01*
X55325Y-44487D01*
X55487Y-44326D01*
X55499Y-44294D01*
X55512Y-44325D01*
X55673Y-44487D01*
X55885Y-44574D01*
X56113Y-44574D01*
X56325Y-44487D01*
X56487Y-44326D01*
X56499Y-44294D01*
X56512Y-44325D01*
X56673Y-44487D01*
X56885Y-44574D01*
X57113Y-44574D01*
X57325Y-44487D01*
X57487Y-44326D01*
X57499Y-44294D01*
X57512Y-44325D01*
X57673Y-44487D01*
X57885Y-44574D01*
X58113Y-44574D01*
X58325Y-44487D01*
X58487Y-44326D01*
X58497Y-44300D01*
X58498Y-44302D01*
X58596Y-44333D01*
X58929Y-44000D01*
X58596Y-43666D01*
X58498Y-43697D01*
X58497Y-43698D01*
X58487Y-43674D01*
X58326Y-43512D01*
X58114Y-43425D01*
X57886Y-43425D01*
X57674Y-43512D01*
X57512Y-43673D01*
X57500Y-43705D01*
X57487Y-43674D01*
X57326Y-43512D01*
X57114Y-43425D01*
X56886Y-43425D01*
X56674Y-43512D01*
X56512Y-43673D01*
X56500Y-43705D01*
X56487Y-43674D01*
X56326Y-43512D01*
X56114Y-43425D01*
X55886Y-43425D01*
X55860Y-43435D01*
X55212Y-42787D01*
X55114Y-42722D01*
X55000Y-42700D01*
X50324Y-42700D01*
X50224Y-42600D01*
X50225Y-42515D01*
X50160Y-42359D01*
X50041Y-42239D01*
X49884Y-42175D01*
X49849Y-42175D01*
X49924Y-42100D01*
X64800Y-42100D01*
X64800Y-42099D01*
X64914Y-42077D01*
X64914Y-42077D01*
X65012Y-42012D01*
X65212Y-41812D01*
X65212Y-41812D01*
X65277Y-41714D01*
X65299Y-41600D01*
X65300Y-41600D01*
X65300Y-41574D01*
X65374Y-41574D01*
X65466Y-41536D01*
X65536Y-41466D01*
X65574Y-41374D01*
X65574Y-41275D01*
X65574Y-43886D01*
X65487Y-43674D01*
X65326Y-43512D01*
X65114Y-43425D01*
X64886Y-43425D01*
X64674Y-43512D01*
X64512Y-43673D01*
X64500Y-43705D01*
X64487Y-43674D01*
X64326Y-43512D01*
X64114Y-43425D01*
X63886Y-43425D01*
X63674Y-43512D01*
X63512Y-43673D01*
X63500Y-43705D01*
X63487Y-43674D01*
X63326Y-43512D01*
X63114Y-43425D01*
X62886Y-43425D01*
X62674Y-43512D01*
X62512Y-43673D01*
X62500Y-43705D01*
X62487Y-43674D01*
X62326Y-43512D01*
X62114Y-43425D01*
X61886Y-43425D01*
X61674Y-43512D01*
X61512Y-43673D01*
X61500Y-43705D01*
X61487Y-43674D01*
X61326Y-43512D01*
X61114Y-43425D01*
X60886Y-43425D01*
X60674Y-43512D01*
X60512Y-43673D01*
X60500Y-43705D01*
X60487Y-43674D01*
X60326Y-43512D01*
X60114Y-43425D01*
X59886Y-43425D01*
X59674Y-43512D01*
X59512Y-43673D01*
X59502Y-43699D01*
X59501Y-43697D01*
X59403Y-43666D01*
X59333Y-43737D01*
X59333Y-43596D01*
X59302Y-43498D01*
X59087Y-43420D01*
X58859Y-43431D01*
X58697Y-43498D01*
X58666Y-43596D01*
X59000Y-43929D01*
X59333Y-43596D01*
X59333Y-43737D01*
X59070Y-44000D01*
X59403Y-44333D01*
X59501Y-44302D01*
X59502Y-44301D01*
X59512Y-44325D01*
X59673Y-44487D01*
X59885Y-44574D01*
X60113Y-44574D01*
X60325Y-44487D01*
X60487Y-44326D01*
X60499Y-44294D01*
X60512Y-44325D01*
X60673Y-44487D01*
X60885Y-44574D01*
X61113Y-44574D01*
X61325Y-44487D01*
X61487Y-44326D01*
X61499Y-44294D01*
X61512Y-44325D01*
X61673Y-44487D01*
X61885Y-44574D01*
X62113Y-44574D01*
X62325Y-44487D01*
X62487Y-44326D01*
X62499Y-44294D01*
X62512Y-44325D01*
X62673Y-44487D01*
X62885Y-44574D01*
X63113Y-44574D01*
X63325Y-44487D01*
X63487Y-44326D01*
X63499Y-44294D01*
X63512Y-44325D01*
X63673Y-44487D01*
X63885Y-44574D01*
X64113Y-44574D01*
X64325Y-44487D01*
X64487Y-44326D01*
X64499Y-44294D01*
X64512Y-44325D01*
X64673Y-44487D01*
X64885Y-44574D01*
X65113Y-44574D01*
X65325Y-44487D01*
X65487Y-44326D01*
X65574Y-44114D01*
X65574Y-43886D01*
X65574Y-44900D01*
X60800Y-44900D01*
X60685Y-44922D01*
X60587Y-44987D01*
X60050Y-45525D01*
X59905Y-45524D01*
X59731Y-45597D01*
X59597Y-45730D01*
X59525Y-45905D01*
X59524Y-46094D01*
X59597Y-46268D01*
X59730Y-46402D01*
X59905Y-46474D01*
X60094Y-46475D01*
X60268Y-46402D01*
X60402Y-46269D01*
X60474Y-46094D01*
X60475Y-45949D01*
X60529Y-45894D01*
X60525Y-45905D01*
X60524Y-46094D01*
X60597Y-46268D01*
X60730Y-46402D01*
X60905Y-46474D01*
X61094Y-46475D01*
X61268Y-46402D01*
X61402Y-46269D01*
X61474Y-46094D01*
X61475Y-45905D01*
X61402Y-45731D01*
X61269Y-45597D01*
X61094Y-45525D01*
X60905Y-45524D01*
X60894Y-45529D01*
X60924Y-45500D01*
X68600Y-45500D01*
X68600Y-45499D01*
X68714Y-45477D01*
X68714Y-45477D01*
X68812Y-45412D01*
X72012Y-42212D01*
X72012Y-42212D01*
X72077Y-42114D01*
X72099Y-42000D01*
X72100Y-42000D01*
X72100Y-38101D01*
X72160Y-38041D01*
X72224Y-37884D01*
X72225Y-37715D01*
X72225Y-43475D01*
X72115Y-43474D01*
X71959Y-43539D01*
X71839Y-43658D01*
X71775Y-43815D01*
X71774Y-43984D01*
X71839Y-44140D01*
X71875Y-44175D01*
X71875Y-53365D01*
X71270Y-53970D01*
X71199Y-54075D01*
X71175Y-54200D01*
X71175Y-57153D01*
X71097Y-57230D01*
X71025Y-57405D01*
X71024Y-57594D01*
X71097Y-57768D01*
X71230Y-57902D01*
X71405Y-57974D01*
X71594Y-57975D01*
X71768Y-57902D01*
X71902Y-57769D01*
X71974Y-57594D01*
X71975Y-57405D01*
X71902Y-57231D01*
X71825Y-57153D01*
X71825Y-54334D01*
X72429Y-53729D01*
X72429Y-53729D01*
X72429Y-53729D01*
X72500Y-53624D01*
X72500Y-53624D01*
X72520Y-53524D01*
X72525Y-53500D01*
X72524Y-53500D01*
X72525Y-53500D01*
X72525Y-44176D01*
X72560Y-44141D01*
X72624Y-43984D01*
X72625Y-43815D01*
X72625Y-58450D01*
X64475Y-58450D01*
X64475Y-45905D01*
X64402Y-45731D01*
X64269Y-45597D01*
X64094Y-45525D01*
X63905Y-45524D01*
X63731Y-45597D01*
X63597Y-45730D01*
X63525Y-45905D01*
X63524Y-46094D01*
X63597Y-46268D01*
X63730Y-46402D01*
X63905Y-46474D01*
X64094Y-46475D01*
X64268Y-46402D01*
X64402Y-46269D01*
X64474Y-46094D01*
X64475Y-45905D01*
X64475Y-58450D01*
X62475Y-58450D01*
X62475Y-45905D01*
X62402Y-45731D01*
X62269Y-45597D01*
X62094Y-45525D01*
X61905Y-45524D01*
X61731Y-45597D01*
X61597Y-45730D01*
X61525Y-45905D01*
X61524Y-46094D01*
X61597Y-46268D01*
X61730Y-46402D01*
X61905Y-46474D01*
X62094Y-46475D01*
X62268Y-46402D01*
X62402Y-46269D01*
X62474Y-46094D01*
X62475Y-45905D01*
X62475Y-58450D01*
X62427Y-58450D01*
X62427Y-56910D01*
X62361Y-56749D01*
X62238Y-56626D01*
X62077Y-56559D01*
X61965Y-56559D01*
X61965Y-56041D01*
X61927Y-55949D01*
X61856Y-55879D01*
X61764Y-55841D01*
X61665Y-55841D01*
X61035Y-55841D01*
X60943Y-55879D01*
X60873Y-55949D01*
X60835Y-56041D01*
X60834Y-56140D01*
X60834Y-56628D01*
X60733Y-56628D01*
X60779Y-56519D01*
X60779Y-56294D01*
X60693Y-56086D01*
X60534Y-55927D01*
X60327Y-55841D01*
X60102Y-55841D01*
X59894Y-55927D01*
X59735Y-56085D01*
X59649Y-56293D01*
X59649Y-56518D01*
X59734Y-56725D01*
X59893Y-56884D01*
X60101Y-56971D01*
X60290Y-56971D01*
X60244Y-57080D01*
X60244Y-57305D01*
X60330Y-57513D01*
X60489Y-57672D01*
X60696Y-57758D01*
X60921Y-57758D01*
X61129Y-57672D01*
X61288Y-57514D01*
X61374Y-57306D01*
X61374Y-57081D01*
X61328Y-56971D01*
X61553Y-56971D01*
X61553Y-57083D01*
X61619Y-57244D01*
X61742Y-57367D01*
X61903Y-57433D01*
X62077Y-57433D01*
X62237Y-57367D01*
X62360Y-57244D01*
X62427Y-57084D01*
X62427Y-56910D01*
X62427Y-58450D01*
X59333Y-58450D01*
X59333Y-44403D01*
X59000Y-44070D01*
X58666Y-44403D01*
X58697Y-44501D01*
X58912Y-44579D01*
X59140Y-44568D01*
X59302Y-44501D01*
X59333Y-44403D01*
X59333Y-58450D01*
X58450Y-58450D01*
X58450Y-51150D01*
X52475Y-51150D01*
X52475Y-45905D01*
X52402Y-45731D01*
X52269Y-45597D01*
X52094Y-45525D01*
X51905Y-45524D01*
X51731Y-45597D01*
X51597Y-45730D01*
X51525Y-45905D01*
X51524Y-46094D01*
X51597Y-46268D01*
X51730Y-46402D01*
X51905Y-46474D01*
X52094Y-46475D01*
X52268Y-46402D01*
X52402Y-46269D01*
X52474Y-46094D01*
X52475Y-45905D01*
X52475Y-51150D01*
X51750Y-51150D01*
X51750Y-58450D01*
X50529Y-58450D01*
X50529Y-57235D01*
X50529Y-56665D01*
X50491Y-56573D01*
X50420Y-56502D01*
X50329Y-56464D01*
X50229Y-56464D01*
X49658Y-56464D01*
X49566Y-56502D01*
X49516Y-56552D01*
X49509Y-56546D01*
X49313Y-56464D01*
X49100Y-56464D01*
X48903Y-56545D01*
X48752Y-56696D01*
X48670Y-56893D01*
X48670Y-57106D01*
X48752Y-57302D01*
X48902Y-57453D01*
X49099Y-57535D01*
X49312Y-57535D01*
X49509Y-57454D01*
X49516Y-57447D01*
X49566Y-57497D01*
X49658Y-57535D01*
X49757Y-57535D01*
X50328Y-57535D01*
X50420Y-57497D01*
X50490Y-57427D01*
X50529Y-57335D01*
X50529Y-57235D01*
X50529Y-58450D01*
X46475Y-58450D01*
X46475Y-52905D01*
X46402Y-52731D01*
X46269Y-52597D01*
X46094Y-52525D01*
X45905Y-52524D01*
X45731Y-52597D01*
X45597Y-52730D01*
X45525Y-52905D01*
X45524Y-53094D01*
X45597Y-53268D01*
X45730Y-53402D01*
X45905Y-53474D01*
X46094Y-53475D01*
X46268Y-53402D01*
X46402Y-53269D01*
X46474Y-53094D01*
X46475Y-52905D01*
X46475Y-58450D01*
X44050Y-58450D01*
X44050Y-53950D01*
X39550Y-53950D01*
X39550Y-25050D01*
X44050Y-25050D01*
X44050Y-20550D01*
X75450Y-20550D01*
X75450Y-25050D01*
X79950Y-25050D01*
X79950Y-53950D01*
X79950Y-53950D01*
G37*
G54D33*
X79950Y-53950D02*
X79592Y-53950D01*
X79592Y-51681D01*
X79592Y-49949D01*
X79527Y-49792D01*
X79475Y-49739D01*
X79475Y-42905D01*
X79402Y-42731D01*
X79269Y-42597D01*
X79094Y-42525D01*
X78905Y-42524D01*
X78731Y-42597D01*
X78597Y-42730D01*
X78525Y-42905D01*
X78524Y-43094D01*
X78597Y-43268D01*
X78730Y-43402D01*
X78905Y-43474D01*
X79094Y-43475D01*
X79268Y-43402D01*
X79402Y-43269D01*
X79474Y-43094D01*
X79475Y-42905D01*
X79475Y-49739D01*
X79407Y-49672D01*
X79250Y-49606D01*
X79080Y-49606D01*
X78923Y-49671D01*
X78803Y-49791D01*
X78737Y-49948D01*
X78737Y-50118D01*
X78802Y-50275D01*
X78922Y-50395D01*
X79079Y-50461D01*
X79249Y-50461D01*
X79406Y-50396D01*
X79526Y-50276D01*
X79592Y-50119D01*
X79592Y-49949D01*
X79592Y-51681D01*
X79527Y-51524D01*
X79407Y-51404D01*
X79250Y-51338D01*
X79080Y-51338D01*
X78923Y-51403D01*
X78803Y-51523D01*
X78737Y-51680D01*
X78737Y-51850D01*
X78802Y-52007D01*
X78922Y-52127D01*
X79079Y-52193D01*
X79249Y-52193D01*
X79406Y-52128D01*
X79526Y-52008D01*
X79592Y-51851D01*
X79592Y-51681D01*
X79592Y-53950D01*
X77927Y-53950D01*
X77927Y-40753D01*
X77927Y-38076D01*
X77862Y-37919D01*
X77742Y-37799D01*
X77585Y-37734D01*
X77415Y-37734D01*
X77258Y-37799D01*
X77138Y-37919D01*
X77072Y-38076D01*
X77072Y-38246D01*
X77137Y-38403D01*
X77257Y-38523D01*
X77414Y-38588D01*
X77584Y-38588D01*
X77741Y-38523D01*
X77861Y-38403D01*
X77927Y-38246D01*
X77927Y-38076D01*
X77927Y-40753D01*
X77862Y-40596D01*
X77742Y-40476D01*
X77585Y-40411D01*
X77415Y-40411D01*
X77258Y-40476D01*
X77138Y-40596D01*
X77072Y-40753D01*
X77072Y-40923D01*
X77137Y-41080D01*
X77257Y-41200D01*
X77414Y-41265D01*
X77584Y-41265D01*
X77741Y-41200D01*
X77861Y-41080D01*
X77927Y-40923D01*
X77927Y-40753D01*
X77927Y-53950D01*
X75475Y-53950D01*
X75475Y-34905D01*
X75402Y-34731D01*
X75269Y-34597D01*
X75094Y-34525D01*
X74905Y-34524D01*
X74731Y-34597D01*
X74597Y-34730D01*
X74525Y-34905D01*
X74524Y-35094D01*
X74597Y-35268D01*
X74730Y-35402D01*
X74905Y-35474D01*
X75094Y-35475D01*
X75268Y-35402D01*
X75402Y-35269D01*
X75474Y-35094D01*
X75475Y-34905D01*
X75475Y-53950D01*
X75450Y-53950D01*
X75450Y-58450D01*
X74077Y-58450D01*
X74077Y-22371D01*
X73978Y-22132D01*
X73795Y-21949D01*
X73556Y-21850D01*
X73298Y-21849D01*
X73059Y-21948D01*
X72876Y-22131D01*
X72777Y-22370D01*
X72776Y-22628D01*
X72875Y-22867D01*
X73058Y-23050D01*
X73297Y-23149D01*
X73555Y-23150D01*
X73794Y-23051D01*
X73977Y-22868D01*
X74076Y-22629D01*
X74077Y-22371D01*
X74077Y-58450D01*
X72700Y-58450D01*
X72700Y-22850D01*
X72700Y-22050D01*
X72662Y-21958D01*
X72591Y-21888D01*
X72499Y-21850D01*
X72400Y-21849D01*
X71600Y-21849D01*
X71508Y-21887D01*
X71438Y-21958D01*
X71400Y-22050D01*
X71399Y-22149D01*
X71399Y-22949D01*
X71437Y-23041D01*
X71508Y-23111D01*
X71600Y-23149D01*
X71699Y-23150D01*
X72499Y-23150D01*
X72591Y-23112D01*
X72661Y-23041D01*
X72699Y-22949D01*
X72700Y-22850D01*
X72700Y-58450D01*
X72625Y-58450D01*
X72625Y-43815D01*
X72560Y-43659D01*
X72441Y-43539D01*
X72284Y-43475D01*
X72225Y-43475D01*
X72225Y-37715D01*
X72160Y-37559D01*
X72041Y-37439D01*
X71884Y-37375D01*
X71715Y-37374D01*
X71559Y-37439D01*
X71439Y-37558D01*
X71375Y-37715D01*
X71374Y-37884D01*
X71439Y-38040D01*
X71500Y-38101D01*
X71500Y-41875D01*
X68475Y-44900D01*
X67594Y-44900D01*
X67594Y-22382D01*
X67504Y-22163D01*
X67337Y-21996D01*
X67118Y-21905D01*
X66882Y-21905D01*
X66663Y-21995D01*
X66499Y-22159D01*
X66346Y-22005D01*
X66420Y-21931D01*
X66495Y-21749D01*
X66496Y-21551D01*
X66420Y-21369D01*
X66281Y-21229D01*
X66099Y-21154D01*
X65901Y-21153D01*
X65719Y-21229D01*
X65579Y-21368D01*
X65504Y-21550D01*
X65503Y-21748D01*
X65579Y-21930D01*
X65653Y-22005D01*
X65499Y-22159D01*
X65337Y-21996D01*
X65118Y-21905D01*
X64882Y-21905D01*
X64663Y-21995D01*
X64582Y-22076D01*
X64556Y-22013D01*
X64485Y-21943D01*
X64393Y-21905D01*
X64112Y-21905D01*
X64050Y-21968D01*
X64050Y-22450D01*
X64057Y-22450D01*
X64057Y-22550D01*
X64050Y-22550D01*
X64050Y-23031D01*
X64112Y-23094D01*
X64393Y-23094D01*
X64450Y-23071D01*
X64450Y-26550D01*
X64491Y-26760D01*
X64611Y-26938D01*
X65141Y-27469D01*
X65191Y-27589D01*
X65359Y-27758D01*
X65580Y-27849D01*
X65818Y-27850D01*
X66039Y-27758D01*
X66208Y-27590D01*
X66299Y-27369D01*
X66300Y-27131D01*
X66208Y-26910D01*
X66040Y-26741D01*
X65919Y-26691D01*
X65550Y-26322D01*
X65550Y-22890D01*
X65662Y-23003D01*
X65881Y-23094D01*
X66117Y-23094D01*
X66336Y-23004D01*
X66500Y-22840D01*
X66662Y-23003D01*
X66700Y-23019D01*
X66700Y-28398D01*
X66639Y-28458D01*
X66575Y-28615D01*
X66574Y-28784D01*
X66639Y-28940D01*
X66758Y-29060D01*
X66915Y-29124D01*
X67084Y-29125D01*
X67240Y-29060D01*
X67360Y-28941D01*
X67424Y-28784D01*
X67425Y-28615D01*
X67360Y-28459D01*
X67300Y-28398D01*
X67300Y-23019D01*
X67336Y-23004D01*
X67503Y-22837D01*
X67594Y-22618D01*
X67594Y-22382D01*
X67594Y-44900D01*
X65574Y-44900D01*
X65574Y-43886D01*
X65574Y-43886D01*
X65574Y-41275D01*
X65574Y-40625D01*
X65536Y-40533D01*
X65466Y-40463D01*
X65374Y-40425D01*
X65275Y-40425D01*
X64625Y-40425D01*
X64533Y-40463D01*
X64475Y-40521D01*
X64475Y-38905D01*
X64402Y-38731D01*
X64269Y-38597D01*
X64094Y-38525D01*
X63950Y-38524D01*
X63950Y-23031D01*
X63950Y-22550D01*
X63950Y-22450D01*
X63950Y-21968D01*
X63887Y-21905D01*
X63606Y-21905D01*
X63514Y-21943D01*
X63443Y-22013D01*
X63405Y-22105D01*
X63405Y-22205D01*
X63405Y-22387D01*
X63468Y-22450D01*
X63950Y-22450D01*
X63950Y-22550D01*
X63468Y-22550D01*
X63405Y-22612D01*
X63405Y-22794D01*
X63405Y-22894D01*
X63443Y-22986D01*
X63514Y-23056D01*
X63606Y-23094D01*
X63887Y-23094D01*
X63950Y-23031D01*
X63950Y-38524D01*
X63905Y-38524D01*
X63731Y-38597D01*
X63597Y-38730D01*
X63525Y-38905D01*
X63524Y-39094D01*
X63597Y-39268D01*
X63730Y-39402D01*
X63905Y-39474D01*
X64094Y-39475D01*
X64268Y-39402D01*
X64402Y-39269D01*
X64474Y-39094D01*
X64475Y-38905D01*
X64475Y-40521D01*
X64463Y-40533D01*
X64429Y-40616D01*
X64326Y-40512D01*
X64114Y-40425D01*
X63886Y-40425D01*
X63674Y-40512D01*
X63512Y-40673D01*
X63500Y-40705D01*
X63487Y-40674D01*
X63475Y-40662D01*
X63475Y-38905D01*
X63402Y-38731D01*
X63269Y-38597D01*
X63094Y-38525D01*
X62905Y-38524D01*
X62731Y-38597D01*
X62597Y-38730D01*
X62525Y-38905D01*
X62524Y-39094D01*
X62597Y-39268D01*
X62730Y-39402D01*
X62905Y-39474D01*
X63094Y-39475D01*
X63268Y-39402D01*
X63402Y-39269D01*
X63474Y-39094D01*
X63475Y-38905D01*
X63475Y-40662D01*
X63326Y-40512D01*
X63114Y-40425D01*
X62886Y-40425D01*
X62674Y-40512D01*
X62512Y-40673D01*
X62500Y-40705D01*
X62487Y-40674D01*
X62326Y-40512D01*
X62114Y-40425D01*
X61886Y-40425D01*
X61674Y-40512D01*
X61620Y-40567D01*
X61620Y-32377D01*
X61525Y-32149D01*
X61376Y-31999D01*
X61525Y-31851D01*
X61619Y-31623D01*
X61620Y-31377D01*
X61525Y-31149D01*
X61351Y-30974D01*
X61123Y-30880D01*
X60877Y-30879D01*
X60649Y-30974D01*
X60474Y-31148D01*
X60380Y-31376D01*
X60379Y-31622D01*
X60474Y-31850D01*
X60623Y-32000D01*
X60474Y-32148D01*
X60380Y-32376D01*
X60379Y-32622D01*
X60474Y-32850D01*
X60648Y-33025D01*
X60876Y-33119D01*
X61122Y-33120D01*
X61350Y-33025D01*
X61525Y-32851D01*
X61619Y-32623D01*
X61620Y-32377D01*
X61620Y-40567D01*
X61512Y-40673D01*
X61500Y-40705D01*
X61487Y-40674D01*
X61326Y-40512D01*
X61114Y-40425D01*
X60886Y-40425D01*
X60674Y-40512D01*
X60512Y-40673D01*
X60500Y-40705D01*
X60487Y-40674D01*
X60326Y-40512D01*
X60114Y-40425D01*
X59886Y-40425D01*
X59674Y-40512D01*
X59512Y-40673D01*
X59500Y-40705D01*
X59487Y-40674D01*
X59326Y-40512D01*
X59114Y-40425D01*
X58886Y-40425D01*
X58674Y-40512D01*
X58655Y-40531D01*
X58655Y-21594D01*
X58569Y-21386D01*
X58410Y-21227D01*
X58203Y-21141D01*
X58050Y-21141D01*
X57829Y-20920D01*
X57724Y-20849D01*
X57600Y-20825D01*
X55850Y-20825D01*
X55725Y-20849D01*
X55620Y-20920D01*
X55620Y-20920D01*
X54120Y-22420D01*
X54049Y-22525D01*
X54025Y-22650D01*
X54025Y-27015D01*
X53655Y-27384D01*
X53655Y-21594D01*
X53569Y-21386D01*
X53410Y-21227D01*
X53203Y-21141D01*
X52978Y-21141D01*
X52770Y-21227D01*
X52611Y-21385D01*
X52525Y-21593D01*
X52525Y-21818D01*
X52571Y-21928D01*
X52346Y-21928D01*
X52346Y-21816D01*
X52280Y-21655D01*
X52157Y-21532D01*
X51996Y-21466D01*
X51822Y-21466D01*
X51662Y-21532D01*
X51539Y-21655D01*
X51472Y-21815D01*
X51472Y-21989D01*
X51538Y-22150D01*
X51661Y-22273D01*
X51822Y-22340D01*
X51934Y-22340D01*
X51934Y-22858D01*
X51972Y-22950D01*
X52043Y-23020D01*
X52135Y-23058D01*
X52234Y-23058D01*
X52864Y-23058D01*
X52956Y-23020D01*
X53026Y-22950D01*
X53064Y-22858D01*
X53065Y-22759D01*
X53065Y-22271D01*
X53202Y-22271D01*
X53410Y-22185D01*
X53569Y-22026D01*
X53655Y-21819D01*
X53655Y-21594D01*
X53655Y-27384D01*
X53365Y-27675D01*
X50626Y-27675D01*
X50591Y-27639D01*
X50434Y-27575D01*
X50265Y-27574D01*
X50109Y-27639D01*
X49989Y-27758D01*
X49925Y-27915D01*
X49924Y-28084D01*
X49989Y-28240D01*
X50108Y-28360D01*
X50265Y-28424D01*
X50434Y-28425D01*
X50590Y-28360D01*
X50625Y-28325D01*
X53500Y-28325D01*
X53624Y-28300D01*
X53624Y-28300D01*
X53729Y-28229D01*
X54579Y-27379D01*
X54650Y-27274D01*
X54650Y-27274D01*
X54675Y-27150D01*
X54675Y-22784D01*
X55984Y-21475D01*
X56801Y-21475D01*
X56662Y-21532D01*
X56539Y-21655D01*
X56472Y-21815D01*
X56472Y-21989D01*
X56538Y-22150D01*
X56661Y-22273D01*
X56822Y-22340D01*
X56934Y-22340D01*
X56934Y-22858D01*
X56972Y-22950D01*
X57043Y-23020D01*
X57135Y-23058D01*
X57234Y-23058D01*
X57864Y-23058D01*
X57956Y-23020D01*
X58026Y-22950D01*
X58064Y-22858D01*
X58065Y-22759D01*
X58065Y-22271D01*
X58202Y-22271D01*
X58410Y-22185D01*
X58569Y-22026D01*
X58655Y-21819D01*
X58655Y-21594D01*
X58655Y-40531D01*
X58512Y-40673D01*
X58502Y-40699D01*
X58501Y-40697D01*
X58403Y-40666D01*
X58333Y-40737D01*
X58333Y-40596D01*
X58302Y-40498D01*
X58087Y-40420D01*
X57859Y-40431D01*
X57697Y-40498D01*
X57666Y-40596D01*
X58000Y-40929D01*
X58333Y-40596D01*
X58333Y-40737D01*
X58070Y-41000D01*
X58403Y-41333D01*
X58501Y-41302D01*
X58502Y-41301D01*
X58512Y-41325D01*
X58673Y-41487D01*
X58705Y-41500D01*
X58303Y-41500D01*
X58333Y-41403D01*
X58000Y-41070D01*
X57666Y-41403D01*
X57696Y-41500D01*
X57295Y-41500D01*
X57325Y-41487D01*
X57487Y-41326D01*
X57497Y-41300D01*
X57498Y-41302D01*
X57596Y-41333D01*
X57929Y-41000D01*
X57596Y-40666D01*
X57498Y-40697D01*
X57497Y-40698D01*
X57487Y-40674D01*
X57326Y-40512D01*
X57114Y-40425D01*
X56886Y-40425D01*
X56674Y-40512D01*
X56512Y-40673D01*
X56500Y-40705D01*
X56487Y-40674D01*
X56326Y-40512D01*
X56114Y-40425D01*
X55886Y-40425D01*
X55674Y-40512D01*
X55512Y-40673D01*
X55500Y-40705D01*
X55487Y-40674D01*
X55326Y-40512D01*
X55114Y-40425D01*
X54886Y-40425D01*
X54674Y-40512D01*
X54512Y-40673D01*
X54500Y-40705D01*
X54487Y-40674D01*
X54326Y-40512D01*
X54114Y-40425D01*
X53886Y-40425D01*
X53674Y-40512D01*
X53512Y-40673D01*
X53500Y-40705D01*
X53487Y-40674D01*
X53326Y-40512D01*
X53114Y-40425D01*
X52886Y-40425D01*
X52674Y-40512D01*
X52512Y-40673D01*
X52500Y-40705D01*
X52487Y-40674D01*
X52326Y-40512D01*
X52114Y-40425D01*
X51975Y-40425D01*
X51975Y-38905D01*
X51902Y-38731D01*
X51769Y-38597D01*
X51594Y-38525D01*
X51405Y-38524D01*
X51231Y-38597D01*
X51097Y-38730D01*
X51025Y-38905D01*
X51024Y-39094D01*
X51097Y-39268D01*
X51230Y-39402D01*
X51405Y-39474D01*
X51594Y-39475D01*
X51768Y-39402D01*
X51902Y-39269D01*
X51974Y-39094D01*
X51975Y-38905D01*
X51975Y-40425D01*
X51886Y-40425D01*
X51674Y-40512D01*
X51512Y-40673D01*
X51425Y-40885D01*
X51425Y-41113D01*
X51512Y-41325D01*
X51673Y-41487D01*
X51705Y-41500D01*
X49800Y-41500D01*
X49685Y-41522D01*
X49587Y-41587D01*
X48975Y-42200D01*
X48975Y-38905D01*
X48902Y-38731D01*
X48769Y-38597D01*
X48655Y-38550D01*
X48655Y-21594D01*
X48569Y-21386D01*
X48410Y-21227D01*
X48203Y-21141D01*
X48000Y-21141D01*
X47729Y-20870D01*
X47624Y-20799D01*
X47500Y-20775D01*
X45700Y-20775D01*
X45575Y-20799D01*
X45470Y-20870D01*
X44620Y-21720D01*
X44549Y-21825D01*
X44525Y-21950D01*
X44525Y-27723D01*
X44489Y-27758D01*
X44425Y-27915D01*
X44424Y-28084D01*
X44489Y-28240D01*
X44608Y-28360D01*
X44765Y-28424D01*
X44934Y-28425D01*
X45090Y-28360D01*
X45210Y-28241D01*
X45274Y-28084D01*
X45275Y-27915D01*
X45210Y-27759D01*
X45175Y-27724D01*
X45175Y-22084D01*
X45834Y-21425D01*
X47365Y-21425D01*
X47528Y-21587D01*
X47525Y-21593D01*
X47525Y-21818D01*
X47571Y-21928D01*
X47346Y-21928D01*
X47346Y-21816D01*
X47280Y-21655D01*
X47157Y-21532D01*
X46996Y-21466D01*
X46822Y-21466D01*
X46662Y-21532D01*
X46539Y-21655D01*
X46472Y-21815D01*
X46472Y-21989D01*
X46538Y-22150D01*
X46661Y-22273D01*
X46822Y-22340D01*
X46934Y-22340D01*
X46934Y-22858D01*
X46972Y-22950D01*
X47043Y-23020D01*
X47135Y-23058D01*
X47234Y-23058D01*
X47864Y-23058D01*
X47956Y-23020D01*
X48026Y-22950D01*
X48064Y-22858D01*
X48065Y-22759D01*
X48065Y-22271D01*
X48202Y-22271D01*
X48410Y-22185D01*
X48569Y-22026D01*
X48655Y-21819D01*
X48655Y-21594D01*
X48655Y-38550D01*
X48594Y-38525D01*
X48405Y-38524D01*
X48231Y-38597D01*
X48097Y-38730D01*
X48025Y-38905D01*
X48024Y-39094D01*
X48097Y-39268D01*
X48230Y-39402D01*
X48405Y-39474D01*
X48594Y-39475D01*
X48768Y-39402D01*
X48902Y-39269D01*
X48974Y-39094D01*
X48975Y-38905D01*
X48975Y-42200D01*
X48955Y-42220D01*
X48436Y-42220D01*
X48415Y-42169D01*
X48241Y-41994D01*
X48013Y-41900D01*
X47767Y-41899D01*
X47539Y-41994D01*
X47364Y-42168D01*
X47270Y-42396D01*
X47269Y-42642D01*
X47364Y-42870D01*
X47493Y-43000D01*
X46734Y-43000D01*
X46734Y-42618D01*
X46724Y-42372D01*
X46649Y-42190D01*
X46546Y-42154D01*
X46475Y-42224D01*
X46475Y-42083D01*
X46439Y-41980D01*
X46208Y-41895D01*
X45975Y-41904D01*
X45975Y-40905D01*
X45975Y-38905D01*
X45902Y-38731D01*
X45769Y-38597D01*
X45594Y-38525D01*
X45405Y-38524D01*
X45231Y-38597D01*
X45097Y-38730D01*
X45025Y-38905D01*
X45024Y-39094D01*
X45097Y-39268D01*
X45230Y-39402D01*
X45405Y-39474D01*
X45594Y-39475D01*
X45768Y-39402D01*
X45902Y-39269D01*
X45974Y-39094D01*
X45975Y-38905D01*
X45975Y-40905D01*
X45902Y-40731D01*
X45769Y-40597D01*
X45594Y-40525D01*
X45405Y-40524D01*
X45231Y-40597D01*
X45097Y-40730D01*
X45025Y-40905D01*
X45024Y-41094D01*
X45097Y-41268D01*
X45230Y-41402D01*
X45405Y-41474D01*
X45594Y-41475D01*
X45768Y-41402D01*
X45902Y-41269D01*
X45974Y-41094D01*
X45975Y-40905D01*
X45975Y-41904D01*
X45962Y-41905D01*
X45780Y-41980D01*
X45744Y-42083D01*
X46110Y-42449D01*
X46475Y-42083D01*
X46475Y-42224D01*
X46180Y-42520D01*
X46546Y-42885D01*
X46649Y-42849D01*
X46734Y-42618D01*
X46734Y-43000D01*
X46460Y-43000D01*
X46475Y-42956D01*
X46110Y-42590D01*
X46039Y-42661D01*
X46039Y-42520D01*
X45673Y-42154D01*
X45570Y-42190D01*
X45485Y-42421D01*
X45495Y-42667D01*
X45570Y-42849D01*
X45673Y-42885D01*
X46039Y-42520D01*
X46039Y-42661D01*
X45744Y-42956D01*
X45759Y-43000D01*
X45324Y-43000D01*
X44324Y-42000D01*
X44325Y-41915D01*
X44260Y-41759D01*
X44141Y-41639D01*
X43984Y-41575D01*
X43815Y-41574D01*
X43659Y-41639D01*
X43539Y-41758D01*
X43475Y-41915D01*
X43474Y-42084D01*
X43539Y-42240D01*
X43658Y-42360D01*
X43815Y-42424D01*
X43900Y-42425D01*
X44987Y-43512D01*
X45085Y-43577D01*
X45200Y-43600D01*
X51587Y-43600D01*
X51512Y-43673D01*
X51425Y-43885D01*
X51425Y-44113D01*
X51512Y-44325D01*
X51673Y-44487D01*
X51885Y-44574D01*
X52113Y-44574D01*
X52325Y-44487D01*
X52487Y-44326D01*
X52499Y-44294D01*
X52512Y-44325D01*
X52673Y-44487D01*
X52885Y-44574D01*
X53113Y-44574D01*
X53325Y-44487D01*
X53487Y-44326D01*
X53499Y-44294D01*
X53512Y-44325D01*
X53673Y-44487D01*
X53700Y-44497D01*
X53700Y-44575D01*
X53375Y-44900D01*
X49700Y-44900D01*
X49585Y-44922D01*
X49487Y-44987D01*
X48775Y-45700D01*
X48013Y-45700D01*
X48240Y-45605D01*
X48415Y-45431D01*
X48509Y-45203D01*
X48510Y-44957D01*
X48415Y-44729D01*
X48241Y-44554D01*
X48013Y-44460D01*
X47767Y-44459D01*
X47539Y-44554D01*
X47364Y-44728D01*
X47270Y-44956D01*
X47269Y-45202D01*
X47364Y-45430D01*
X47538Y-45605D01*
X47766Y-45699D01*
X47889Y-45700D01*
X46734Y-45700D01*
X46734Y-45178D01*
X46724Y-44932D01*
X46649Y-44750D01*
X46546Y-44714D01*
X46475Y-44784D01*
X46475Y-44643D01*
X46439Y-44540D01*
X46208Y-44455D01*
X45962Y-44465D01*
X45780Y-44540D01*
X45744Y-44643D01*
X46110Y-45009D01*
X46475Y-44643D01*
X46475Y-44784D01*
X46180Y-45080D01*
X46546Y-45445D01*
X46649Y-45409D01*
X46734Y-45178D01*
X46734Y-45700D01*
X46122Y-45700D01*
X46257Y-45694D01*
X46439Y-45619D01*
X46475Y-45516D01*
X46110Y-45150D01*
X46039Y-45221D01*
X46039Y-45080D01*
X45673Y-44714D01*
X45570Y-44750D01*
X45485Y-44981D01*
X45495Y-45227D01*
X45570Y-45409D01*
X45673Y-45445D01*
X46039Y-45080D01*
X46039Y-45221D01*
X45744Y-45516D01*
X45780Y-45619D01*
X45999Y-45700D01*
X42584Y-45700D01*
X42584Y-45615D01*
X42546Y-45523D01*
X42476Y-45453D01*
X42403Y-45423D01*
X42495Y-45331D01*
X42584Y-45116D01*
X42584Y-44884D01*
X42495Y-44669D01*
X42331Y-44504D01*
X42320Y-44500D01*
X42330Y-44495D01*
X42495Y-44331D01*
X42584Y-44116D01*
X42584Y-43884D01*
X42495Y-43669D01*
X42331Y-43504D01*
X42320Y-43500D01*
X42330Y-43495D01*
X42495Y-43331D01*
X42584Y-43116D01*
X42584Y-42884D01*
X42495Y-42669D01*
X42331Y-42504D01*
X42320Y-42500D01*
X42330Y-42495D01*
X42495Y-42331D01*
X42584Y-42116D01*
X42584Y-41884D01*
X42495Y-41669D01*
X42331Y-41504D01*
X42116Y-41415D01*
X42058Y-41415D01*
X42058Y-27265D01*
X42058Y-26635D01*
X42020Y-26543D01*
X41950Y-26473D01*
X41858Y-26435D01*
X41759Y-26434D01*
X41271Y-26434D01*
X41271Y-26297D01*
X41185Y-26089D01*
X41026Y-25930D01*
X40819Y-25844D01*
X40594Y-25844D01*
X40386Y-25930D01*
X40227Y-26089D01*
X40141Y-26296D01*
X40141Y-26521D01*
X40227Y-26729D01*
X40385Y-26888D01*
X40593Y-26974D01*
X40818Y-26974D01*
X40928Y-26928D01*
X40928Y-27153D01*
X40816Y-27153D01*
X40655Y-27219D01*
X40532Y-27342D01*
X40466Y-27503D01*
X40466Y-27677D01*
X40532Y-27837D01*
X40655Y-27960D01*
X40815Y-28027D01*
X40989Y-28027D01*
X41150Y-27961D01*
X41273Y-27838D01*
X41340Y-27677D01*
X41340Y-27565D01*
X41858Y-27565D01*
X41950Y-27527D01*
X42020Y-27456D01*
X42058Y-27364D01*
X42058Y-27265D01*
X42058Y-41415D01*
X41884Y-41415D01*
X41669Y-41504D01*
X41504Y-41668D01*
X41496Y-41687D01*
X41411Y-41659D01*
X41340Y-41730D01*
X41340Y-41588D01*
X41308Y-41490D01*
X41090Y-41410D01*
X40857Y-41421D01*
X40691Y-41490D01*
X40659Y-41588D01*
X41000Y-41929D01*
X41340Y-41588D01*
X41340Y-41730D01*
X41070Y-42000D01*
X41411Y-42340D01*
X41496Y-42312D01*
X41504Y-42330D01*
X41668Y-42495D01*
X41679Y-42499D01*
X41669Y-42504D01*
X41504Y-42668D01*
X41496Y-42687D01*
X41411Y-42659D01*
X41340Y-42730D01*
X41340Y-42588D01*
X41311Y-42500D01*
X41340Y-42411D01*
X41000Y-42070D01*
X40929Y-42141D01*
X40929Y-42000D01*
X40588Y-41659D01*
X40490Y-41691D01*
X40410Y-41909D01*
X40421Y-42142D01*
X40490Y-42308D01*
X40588Y-42340D01*
X40929Y-42000D01*
X40929Y-42141D01*
X40659Y-42411D01*
X40688Y-42500D01*
X40659Y-42588D01*
X41000Y-42929D01*
X41340Y-42588D01*
X41340Y-42730D01*
X41070Y-43000D01*
X41411Y-43340D01*
X41496Y-43312D01*
X41504Y-43330D01*
X41668Y-43495D01*
X41679Y-43499D01*
X41669Y-43504D01*
X41504Y-43668D01*
X41496Y-43687D01*
X41411Y-43659D01*
X41340Y-43730D01*
X41340Y-43588D01*
X41311Y-43500D01*
X41340Y-43411D01*
X41000Y-43070D01*
X40929Y-43141D01*
X40929Y-43000D01*
X40588Y-42659D01*
X40490Y-42691D01*
X40410Y-42909D01*
X40421Y-43142D01*
X40490Y-43308D01*
X40588Y-43340D01*
X40929Y-43000D01*
X40929Y-43141D01*
X40659Y-43411D01*
X40688Y-43500D01*
X40659Y-43588D01*
X41000Y-43929D01*
X41340Y-43588D01*
X41340Y-43730D01*
X41070Y-44000D01*
X41411Y-44340D01*
X41496Y-44312D01*
X41504Y-44330D01*
X41668Y-44495D01*
X41679Y-44499D01*
X41669Y-44504D01*
X41504Y-44668D01*
X41496Y-44687D01*
X41411Y-44659D01*
X41340Y-44730D01*
X41340Y-44588D01*
X41311Y-44500D01*
X41340Y-44411D01*
X41000Y-44070D01*
X40929Y-44141D01*
X40929Y-44000D01*
X40588Y-43659D01*
X40490Y-43691D01*
X40410Y-43909D01*
X40421Y-44142D01*
X40490Y-44308D01*
X40588Y-44340D01*
X40929Y-44000D01*
X40929Y-44141D01*
X40659Y-44411D01*
X40688Y-44500D01*
X40659Y-44588D01*
X41000Y-44929D01*
X41340Y-44588D01*
X41340Y-44730D01*
X41070Y-45000D01*
X41411Y-45340D01*
X41496Y-45312D01*
X41504Y-45330D01*
X41596Y-45423D01*
X41523Y-45453D01*
X41453Y-45523D01*
X41423Y-45596D01*
X41331Y-45504D01*
X41312Y-45496D01*
X41340Y-45411D01*
X41000Y-45070D01*
X40929Y-45141D01*
X40929Y-45000D01*
X40588Y-44659D01*
X40490Y-44691D01*
X40410Y-44909D01*
X40421Y-45142D01*
X40490Y-45308D01*
X40588Y-45340D01*
X40929Y-45000D01*
X40929Y-45141D01*
X40659Y-45411D01*
X40687Y-45496D01*
X40669Y-45504D01*
X40504Y-45668D01*
X40415Y-45883D01*
X40415Y-46115D01*
X40504Y-46330D01*
X40668Y-46495D01*
X40883Y-46584D01*
X41115Y-46584D01*
X41330Y-46495D01*
X41423Y-46403D01*
X41453Y-46476D01*
X41523Y-46546D01*
X41615Y-46584D01*
X41714Y-46584D01*
X42384Y-46584D01*
X42476Y-46546D01*
X42546Y-46476D01*
X42584Y-46384D01*
X42584Y-46300D01*
X48900Y-46300D01*
X48900Y-46299D01*
X49014Y-46277D01*
X49014Y-46277D01*
X49112Y-46212D01*
X49824Y-45500D01*
X53500Y-45500D01*
X53500Y-45499D01*
X53614Y-45477D01*
X53614Y-45477D01*
X53712Y-45412D01*
X54212Y-44912D01*
X54212Y-44912D01*
X54277Y-44814D01*
X54299Y-44700D01*
X54300Y-44700D01*
X54300Y-44497D01*
X54325Y-44487D01*
X54487Y-44326D01*
X54499Y-44294D01*
X54512Y-44325D01*
X54673Y-44487D01*
X54885Y-44574D01*
X55113Y-44574D01*
X55325Y-44487D01*
X55487Y-44326D01*
X55499Y-44294D01*
X55512Y-44325D01*
X55673Y-44487D01*
X55885Y-44574D01*
X56113Y-44574D01*
X56325Y-44487D01*
X56487Y-44326D01*
X56499Y-44294D01*
X56512Y-44325D01*
X56673Y-44487D01*
X56885Y-44574D01*
X57113Y-44574D01*
X57325Y-44487D01*
X57487Y-44326D01*
X57499Y-44294D01*
X57512Y-44325D01*
X57673Y-44487D01*
X57885Y-44574D01*
X58113Y-44574D01*
X58325Y-44487D01*
X58487Y-44326D01*
X58497Y-44300D01*
X58498Y-44302D01*
X58596Y-44333D01*
X58929Y-44000D01*
X58596Y-43666D01*
X58498Y-43697D01*
X58497Y-43698D01*
X58487Y-43674D01*
X58326Y-43512D01*
X58114Y-43425D01*
X57886Y-43425D01*
X57674Y-43512D01*
X57512Y-43673D01*
X57500Y-43705D01*
X57487Y-43674D01*
X57326Y-43512D01*
X57114Y-43425D01*
X56886Y-43425D01*
X56674Y-43512D01*
X56512Y-43673D01*
X56500Y-43705D01*
X56487Y-43674D01*
X56326Y-43512D01*
X56114Y-43425D01*
X55886Y-43425D01*
X55860Y-43435D01*
X55212Y-42787D01*
X55114Y-42722D01*
X55000Y-42700D01*
X50324Y-42700D01*
X50224Y-42600D01*
X50225Y-42515D01*
X50160Y-42359D01*
X50041Y-42239D01*
X49884Y-42175D01*
X49849Y-42175D01*
X49924Y-42100D01*
X64800Y-42100D01*
X64800Y-42099D01*
X64914Y-42077D01*
X64914Y-42077D01*
X65012Y-42012D01*
X65212Y-41812D01*
X65212Y-41812D01*
X65277Y-41714D01*
X65299Y-41600D01*
X65300Y-41600D01*
X65300Y-41574D01*
X65374Y-41574D01*
X65466Y-41536D01*
X65536Y-41466D01*
X65574Y-41374D01*
X65574Y-41275D01*
X65574Y-43886D01*
X65487Y-43674D01*
X65326Y-43512D01*
X65114Y-43425D01*
X64886Y-43425D01*
X64674Y-43512D01*
X64512Y-43673D01*
X64500Y-43705D01*
X64487Y-43674D01*
X64326Y-43512D01*
X64114Y-43425D01*
X63886Y-43425D01*
X63674Y-43512D01*
X63512Y-43673D01*
X63500Y-43705D01*
X63487Y-43674D01*
X63326Y-43512D01*
X63114Y-43425D01*
X62886Y-43425D01*
X62674Y-43512D01*
X62512Y-43673D01*
X62500Y-43705D01*
X62487Y-43674D01*
X62326Y-43512D01*
X62114Y-43425D01*
X61886Y-43425D01*
X61674Y-43512D01*
X61512Y-43673D01*
X61500Y-43705D01*
X61487Y-43674D01*
X61326Y-43512D01*
X61114Y-43425D01*
X60886Y-43425D01*
X60674Y-43512D01*
X60512Y-43673D01*
X60500Y-43705D01*
X60487Y-43674D01*
X60326Y-43512D01*
X60114Y-43425D01*
X59886Y-43425D01*
X59674Y-43512D01*
X59512Y-43673D01*
X59502Y-43699D01*
X59501Y-43697D01*
X59403Y-43666D01*
X59333Y-43737D01*
X59333Y-43596D01*
X59302Y-43498D01*
X59087Y-43420D01*
X58859Y-43431D01*
X58697Y-43498D01*
X58666Y-43596D01*
X59000Y-43929D01*
X59333Y-43596D01*
X59333Y-43737D01*
X59070Y-44000D01*
X59403Y-44333D01*
X59501Y-44302D01*
X59502Y-44301D01*
X59512Y-44325D01*
X59673Y-44487D01*
X59885Y-44574D01*
X60113Y-44574D01*
X60325Y-44487D01*
X60487Y-44326D01*
X60499Y-44294D01*
X60512Y-44325D01*
X60673Y-44487D01*
X60885Y-44574D01*
X61113Y-44574D01*
X61325Y-44487D01*
X61487Y-44326D01*
X61499Y-44294D01*
X61512Y-44325D01*
X61673Y-44487D01*
X61885Y-44574D01*
X62113Y-44574D01*
X62325Y-44487D01*
X62487Y-44326D01*
X62499Y-44294D01*
X62512Y-44325D01*
X62673Y-44487D01*
X62885Y-44574D01*
X63113Y-44574D01*
X63325Y-44487D01*
X63487Y-44326D01*
X63499Y-44294D01*
X63512Y-44325D01*
X63673Y-44487D01*
X63885Y-44574D01*
X64113Y-44574D01*
X64325Y-44487D01*
X64487Y-44326D01*
X64499Y-44294D01*
X64512Y-44325D01*
X64673Y-44487D01*
X64885Y-44574D01*
X65113Y-44574D01*
X65325Y-44487D01*
X65487Y-44326D01*
X65574Y-44114D01*
X65574Y-43886D01*
X65574Y-44900D01*
X60800Y-44900D01*
X60685Y-44922D01*
X60587Y-44987D01*
X60050Y-45525D01*
X59905Y-45524D01*
X59731Y-45597D01*
X59597Y-45730D01*
X59525Y-45905D01*
X59524Y-46094D01*
X59597Y-46268D01*
X59730Y-46402D01*
X59905Y-46474D01*
X60094Y-46475D01*
X60268Y-46402D01*
X60402Y-46269D01*
X60474Y-46094D01*
X60475Y-45949D01*
X60529Y-45894D01*
X60525Y-45905D01*
X60524Y-46094D01*
X60597Y-46268D01*
X60730Y-46402D01*
X60905Y-46474D01*
X61094Y-46475D01*
X61268Y-46402D01*
X61402Y-46269D01*
X61474Y-46094D01*
X61475Y-45905D01*
X61402Y-45731D01*
X61269Y-45597D01*
X61094Y-45525D01*
X60905Y-45524D01*
X60894Y-45529D01*
X60924Y-45500D01*
X68600Y-45500D01*
X68600Y-45499D01*
X68714Y-45477D01*
X68714Y-45477D01*
X68812Y-45412D01*
X72012Y-42212D01*
X72012Y-42212D01*
X72077Y-42114D01*
X72099Y-42000D01*
X72100Y-42000D01*
X72100Y-38101D01*
X72160Y-38041D01*
X72224Y-37884D01*
X72225Y-37715D01*
X72225Y-43475D01*
X72115Y-43474D01*
X71959Y-43539D01*
X71839Y-43658D01*
X71775Y-43815D01*
X71774Y-43984D01*
X71839Y-44140D01*
X71875Y-44175D01*
X71875Y-53365D01*
X71270Y-53970D01*
X71199Y-54075D01*
X71175Y-54200D01*
X71175Y-57153D01*
X71097Y-57230D01*
X71025Y-57405D01*
X71024Y-57594D01*
X71097Y-57768D01*
X71230Y-57902D01*
X71405Y-57974D01*
X71594Y-57975D01*
X71768Y-57902D01*
X71902Y-57769D01*
X71974Y-57594D01*
X71975Y-57405D01*
X71902Y-57231D01*
X71825Y-57153D01*
X71825Y-54334D01*
X72429Y-53729D01*
X72429Y-53729D01*
X72429Y-53729D01*
X72500Y-53624D01*
X72500Y-53624D01*
X72520Y-53524D01*
X72525Y-53500D01*
X72524Y-53500D01*
X72525Y-53500D01*
X72525Y-44176D01*
X72560Y-44141D01*
X72624Y-43984D01*
X72625Y-43815D01*
X72625Y-58450D01*
X64475Y-58450D01*
X64475Y-45905D01*
X64402Y-45731D01*
X64269Y-45597D01*
X64094Y-45525D01*
X63905Y-45524D01*
X63731Y-45597D01*
X63597Y-45730D01*
X63525Y-45905D01*
X63524Y-46094D01*
X63597Y-46268D01*
X63730Y-46402D01*
X63905Y-46474D01*
X64094Y-46475D01*
X64268Y-46402D01*
X64402Y-46269D01*
X64474Y-46094D01*
X64475Y-45905D01*
X64475Y-58450D01*
X62475Y-58450D01*
X62475Y-45905D01*
X62402Y-45731D01*
X62269Y-45597D01*
X62094Y-45525D01*
X61905Y-45524D01*
X61731Y-45597D01*
X61597Y-45730D01*
X61525Y-45905D01*
X61524Y-46094D01*
X61597Y-46268D01*
X61730Y-46402D01*
X61905Y-46474D01*
X62094Y-46475D01*
X62268Y-46402D01*
X62402Y-46269D01*
X62474Y-46094D01*
X62475Y-45905D01*
X62475Y-58450D01*
X62427Y-58450D01*
X62427Y-56910D01*
X62361Y-56749D01*
X62238Y-56626D01*
X62077Y-56559D01*
X61965Y-56559D01*
X61965Y-56041D01*
X61927Y-55949D01*
X61856Y-55879D01*
X61764Y-55841D01*
X61665Y-55841D01*
X61035Y-55841D01*
X60943Y-55879D01*
X60873Y-55949D01*
X60835Y-56041D01*
X60834Y-56140D01*
X60834Y-56628D01*
X60733Y-56628D01*
X60779Y-56519D01*
X60779Y-56294D01*
X60693Y-56086D01*
X60534Y-55927D01*
X60327Y-55841D01*
X60102Y-55841D01*
X59894Y-55927D01*
X59735Y-56085D01*
X59649Y-56293D01*
X59649Y-56518D01*
X59734Y-56725D01*
X59893Y-56884D01*
X60101Y-56971D01*
X60290Y-56971D01*
X60244Y-57080D01*
X60244Y-57305D01*
X60330Y-57513D01*
X60489Y-57672D01*
X60696Y-57758D01*
X60921Y-57758D01*
X61129Y-57672D01*
X61288Y-57514D01*
X61374Y-57306D01*
X61374Y-57081D01*
X61328Y-56971D01*
X61553Y-56971D01*
X61553Y-57083D01*
X61619Y-57244D01*
X61742Y-57367D01*
X61903Y-57433D01*
X62077Y-57433D01*
X62237Y-57367D01*
X62360Y-57244D01*
X62427Y-57084D01*
X62427Y-56910D01*
X62427Y-58450D01*
X59333Y-58450D01*
X59333Y-44403D01*
X59000Y-44070D01*
X58666Y-44403D01*
X58697Y-44501D01*
X58912Y-44579D01*
X59140Y-44568D01*
X59302Y-44501D01*
X59333Y-44403D01*
X59333Y-58450D01*
X58450Y-58450D01*
X58450Y-51150D01*
X52475Y-51150D01*
X52475Y-45905D01*
X52402Y-45731D01*
X52269Y-45597D01*
X52094Y-45525D01*
X51905Y-45524D01*
X51731Y-45597D01*
X51597Y-45730D01*
X51525Y-45905D01*
X51524Y-46094D01*
X51597Y-46268D01*
X51730Y-46402D01*
X51905Y-46474D01*
X52094Y-46475D01*
X52268Y-46402D01*
X52402Y-46269D01*
X52474Y-46094D01*
X52475Y-45905D01*
X52475Y-51150D01*
X51750Y-51150D01*
X51750Y-58450D01*
X50529Y-58450D01*
X50529Y-57235D01*
X50529Y-56665D01*
X50491Y-56573D01*
X50420Y-56502D01*
X50329Y-56464D01*
X50229Y-56464D01*
X49658Y-56464D01*
X49566Y-56502D01*
X49516Y-56552D01*
X49509Y-56546D01*
X49313Y-56464D01*
X49100Y-56464D01*
X48903Y-56545D01*
X48752Y-56696D01*
X48670Y-56893D01*
X48670Y-57106D01*
X48752Y-57302D01*
X48902Y-57453D01*
X49099Y-57535D01*
X49312Y-57535D01*
X49509Y-57454D01*
X49516Y-57447D01*
X49566Y-57497D01*
X49658Y-57535D01*
X49757Y-57535D01*
X50328Y-57535D01*
X50420Y-57497D01*
X50490Y-57427D01*
X50529Y-57335D01*
X50529Y-57235D01*
X50529Y-58450D01*
X46475Y-58450D01*
X46475Y-52905D01*
X46402Y-52731D01*
X46269Y-52597D01*
X46094Y-52525D01*
X45905Y-52524D01*
X45731Y-52597D01*
X45597Y-52730D01*
X45525Y-52905D01*
X45524Y-53094D01*
X45597Y-53268D01*
X45730Y-53402D01*
X45905Y-53474D01*
X46094Y-53475D01*
X46268Y-53402D01*
X46402Y-53269D01*
X46474Y-53094D01*
X46475Y-52905D01*
X46475Y-58450D01*
X44050Y-58450D01*
X44050Y-53950D01*
X39550Y-53950D01*
X39550Y-25050D01*
X44050Y-25050D01*
X44050Y-20550D01*
X75450Y-20550D01*
X75450Y-25050D01*
X79950Y-25050D01*
X79950Y-53950D01*
M02*
