M48
INCH,TZ
T1C0.020
T2C0.025
T3C0.028
T4C0.035
T5C0.037
T6C0.039
T7C0.040
T8C0.040
T9C0.049
T10C0.050
T11C0.157
%
G90
G05
T1
X41600Y-53400
X42500Y-29100
X43900Y-42000
X44850Y-28000
X45500Y-29100
X48500Y-29100
X49800Y-42600
X50350Y-28000
X51500Y-29150
X55600Y-50600
X56500Y-32200
X63000Y-33550
X65500Y-33550
X66000Y-56300
X67000Y-28700
X68000Y-35100
X69500Y-42600
X71800Y-37800
X72200Y-43900
X73000Y-35100
X73200Y-53750
X73500Y-43900
X76300Y-50250
T2
X45500Y-39000
X45500Y-41000
X46000Y-53000
X48500Y-39000
X51500Y-39000
X52000Y-46000
X60000Y-46000
X61000Y-46000
X62000Y-46000
X63000Y-39000
X64000Y-39000
X64000Y-46000
X71500Y-57500
X75000Y-35000
X79000Y-43000
T3
X49206Y-57000
X49994Y-57000
T4
X77500Y-38161
X77500Y-40839
X79165Y-50034
X79165Y-51766
T5
X40706Y-26409
X40903Y-27591
X41494Y-27000
X46909Y-21903
X47500Y-22494
X48091Y-21706
X51909Y-21903
X52500Y-22494
X53091Y-21706
X56909Y-21903
X57500Y-22494
X58091Y-21706
X60214Y-56406
X60809Y-57194
X61400Y-56406
X61991Y-56997
T6
X41000Y-42000
X41000Y-43000
X41000Y-44000
X41000Y-45000
X41000Y-46000
X42000Y-42000
X42000Y-43000
X42000Y-44000
X42000Y-45000
X42000Y-46000
X52000Y-41000
X52000Y-44000
X53000Y-41000
X53000Y-44000
X54000Y-41000
X54000Y-44000
X55000Y-41000
X55000Y-44000
X56000Y-41000
X56000Y-44000
X57000Y-41000
X57000Y-44000
X58000Y-41000
X58000Y-44000
X59000Y-41000
X59000Y-44000
X60000Y-41000
X60000Y-44000
X61000Y-41000
X61000Y-44000
X62000Y-41000
X62000Y-44000
X63000Y-41000
X63000Y-44000
X64000Y-41000
X64000Y-44000
X65000Y-41000
X65000Y-44000
T7
X46110Y-42520
X46110Y-45080
X47890Y-42520
X47890Y-45080
X61000Y-31500
X61000Y-32500
X65700Y-27250
X66050Y-26250
X77500Y-28800
T8
X64000Y-22500
X65000Y-22500
X66000Y-22500
X67000Y-22500
T9
X66000Y-21650
T10
X72050Y-22500
X73427Y-22500
T11
X41000Y-22000
X41000Y-57000
X78500Y-22000
X78500Y-57000
T0
M30
